<?xml version="1.0" encoding="UTF-8" standalone="no"?>
<!-- Created with Inkscape (http://www.inkscape.org/) -->

<svg
   xmlns:dc="http://purl.org/dc/elements/1.1/"
   xmlns:cc="http://creativecommons.org/ns#"
   xmlns:rdf="http://www.w3.org/1999/02/22-rdf-syntax-ns#"
   xmlns:svg="http://www.w3.org/2000/svg"
   xmlns="http://www.w3.org/2000/svg"
   xmlns:sodipodi="http://sodipodi.sourceforge.net/DTD/sodipodi-0.dtd"
   xmlns:inkscape="http://www.inkscape.org/namespaces/inkscape"
   width="260.6297"
   height="51.253757"
   viewBox="0 0 68.958273 13.560891"
   version="1.1"
   id="svg8"
   inkscape:version="0.92.1 r15371"
   sodipodi:docname="Psicobotica_Logo_Dual.svg"
   inkscape:export-filename="D:\Dropbox-Array2001\Dropbox\Work\Psicobotica\Logo\psicobotica_logos_600.png"
   inkscape:export-xdpi="18.129999"
   inkscape:export-ydpi="18.129999">
  <defs
     id="defs2">
    <inkscape:perspective
       sodipodi:type="inkscape:persp3d"
       inkscape:vp_x="-12.225864 : 21.742012 : 1"
       inkscape:vp_y="0 : 1318.9501 : 0"
       inkscape:vp_z="166.23359 : 21.742012 : 1"
       inkscape:persp3d-origin="77.003866 : 2.484592 : 1"
       id="perspective4550" />
    <clipPath
       id="clipPath3649"
       clipPathUnits="userSpaceOnUse">
      <rect
         id="rect3651"
         style="fill:url(#linearGradient3653);stroke:#999999;stroke-width:24.76499939"
         ry="0.14455"
         height="395.23001"
         width="450.23001"
         y="27.18"
         x="304.35001" />
    </clipPath>
    <clipPath
       id="clipPath3649-6"
       clipPathUnits="userSpaceOnUse">
      <rect
         id="rect3651-4"
         style="fill:url(#linearGradient3653);stroke:#999999;stroke-width:24.76499939"
         ry="0.14455"
         height="395.23001"
         width="450.23001"
         y="27.18"
         x="304.35001" />
    </clipPath>
  </defs>
  <sodipodi:namedview
     id="base"
     pagecolor="#ffffff"
     bordercolor="#666666"
     borderopacity="1.0"
     inkscape:pageopacity="0.0"
     inkscape:pageshadow="2"
     inkscape:zoom="2.8284272"
     inkscape:cx="177.00565"
     inkscape:cy="5.5327829"
     inkscape:document-units="px"
     inkscape:current-layer="layer5"
     showgrid="false"
     inkscape:window-width="1920"
     inkscape:window-height="1001"
     inkscape:window-x="-9"
     inkscape:window-y="-9"
     inkscape:window-maximized="1"
     showguides="false"
     objecttolerance="20"
     guidetolerance="10000"
     inkscape:snap-perpendicular="false"
     inkscape:snap-tangential="false"
     inkscape:snap-grids="true"
     inkscape:snap-to-guides="true"
     units="px"
     fit-margin-top="4"
     fit-margin-left="4"
     fit-margin-bottom="4"
     fit-margin-right="4">
    <inkscape:grid
       type="xygrid"
       id="grid4485"
       snapvisiblegridlinesonly="false"
       empspacing="1"
       dotted="false"
       empcolor="#323fff"
       empopacity="0.25098039"
       spacingx="0.026458333"
       spacingy="0.026458333"
       originx="-371.97116"
       originy="-284.0291" />
  </sodipodi:namedview>
  <metadata
     id="metadata5">
    <rdf:RDF>
      <cc:Work
         rdf:about="">
        <dc:format>image/svg+xml</dc:format>
        <dc:type
           rdf:resource="http://purl.org/dc/dcmitype/StillImage" />
        <dc:title></dc:title>
      </cc:Work>
    </rdf:RDF>
  </metadata>
  <g
     inkscape:groupmode="layer"
     id="layer5"
     inkscape:label="Sol"
     style="display:inline"
     transform="translate(-322.11043,-22.966002)">
    <g
       id="g4527"
       transform="matrix(0.08,0,0,0.08,328.0624,27.366732)">
      <g
         transform="matrix(7.04,0,0,7.04,-561.77803,-406.74469)"
         id="g4590">
        <g
           id="text4489"
           style="font-style:normal;font-weight:normal;font-size:10.58333302px;line-height:1.25;font-family:sans-serif;letter-spacing:0px;word-spacing:0px;display:inline;fill:#000000;fill-opacity:1;stroke:none;stroke-width:0.26458332"
           aria-label="psicobotica">
          <path
             inkscape:connector-curvature="0"
             id="path4502"
             style="font-style:normal;font-variant:normal;font-weight:normal;font-stretch:normal;font-size:22.57777786px;font-family:'Tenby Five';-inkscape-font-specification:'Tenby Five';fill:#000000;fill-opacity:1;stroke-width:0.26458332"
             d="m 95.221713,67.646027 c 1.873955,0 3.386667,-1.512712 3.386667,-3.386667 v -4.515556 c 0,-1.873955 -1.512712,-3.386666 -3.386667,-3.386666 h -5.644445 v 15.804444 h 2.257778 v -4.515555 z m 1.128889,-3.386667 c 0,0.632178 -0.496711,1.128889 -1.128889,1.128889 h -3.386667 v -6.773334 h 3.386667 c 0.632178,0 1.128889,0.496712 1.128889,1.128889 z" />
          <path
             inkscape:connector-curvature="0"
             id="path4504"
             style="font-style:normal;font-variant:normal;font-weight:normal;font-stretch:normal;font-size:22.57777786px;font-family:'Tenby Five';-inkscape-font-specification:'Tenby Five';fill:#000000;fill-opacity:1;stroke-width:0.26458332"
             d="m 105.83856,63.130471 c 0.90311,0 1.35467,0.496711 1.35467,1.128889 0,0.632178 -0.49671,1.128889 -1.12889,1.128889 h -5.87022 l 0.67733,2.257778 h 5.19289 c 1.87395,0 3.38667,-1.512712 3.38667,-3.386667 0,-1.873956 -1.51272,-3.386667 -3.38667,-3.386667 h -2.25778 c -0.90311,0 -1.35467,-0.496711 -1.35467,-1.128889 0,-0.632177 0.49671,-1.128889 1.12889,-1.128889 h 5.64445 l -0.67734,-2.257777 h -4.96711 c -1.87395,0 -3.38666,1.512711 -3.38666,3.386666 0,1.873956 1.51271,3.386667 3.38666,3.386667 z" />
          <path
             inkscape:connector-curvature="0"
             id="path4506"
             style="font-style:normal;font-variant:normal;font-weight:normal;font-stretch:normal;font-size:22.57777786px;font-family:'Tenby Five';-inkscape-font-specification:'Tenby Five';fill:#000000;fill-opacity:1;stroke-width:0.26458332"
             d="m 111.2731,67.646027 h 2.25778 V 56.357138 h -2.25778 z m 0,-13.546667 h 2.25778 v -2.257778 h -2.25778 z" />
          <path
             inkscape:connector-curvature="0"
             id="path4508"
             style="font-style:normal;font-variant:normal;font-weight:normal;font-stretch:normal;font-size:22.57777786px;font-family:'Tenby Five';-inkscape-font-specification:'Tenby Five';fill:#000000;fill-opacity:1;stroke-width:0.26458332"
             d="m 115.54524,64.25936 c 0,1.873955 1.51271,3.386667 3.38667,3.386667 h 4.74133 l 0.45156,-2.257778 h -5.19289 c -0.63218,0 -1.12889,-0.496711 -1.12889,-1.128889 v -4.515556 c 0,-0.632177 0.49671,-1.128889 1.12889,-1.128889 h 5.19289 l -0.67734,-2.257777 h -4.51555 c -1.87396,0 -3.38667,1.512711 -3.38667,3.386666 z" />
          <path
             inkscape:connector-curvature="0"
             id="path4510"
             style="font-style:normal;font-variant:normal;font-weight:normal;font-stretch:normal;font-size:22.57777786px;font-family:'Tenby Five';-inkscape-font-specification:'Tenby Five';fill:#000000;fill-opacity:1;stroke-width:0.26458332"
             d="m 131.11156,67.646027 c 1.87396,0 3.38667,-1.512712 3.38667,-3.386667 v -4.515556 c 0,-1.873955 -1.51271,-3.386666 -3.38667,-3.386666 h -2.25778 c -1.87395,0 -3.38666,1.512711 -3.38666,3.386666 v 4.515556 c 0,1.873955 1.51271,3.386667 3.38666,3.386667 z m -2.25778,-2.257778 c -0.63217,0 -1.12888,-0.496711 -1.12888,-1.128889 v -4.515556 c 0,-0.632177 0.49671,-1.128889 1.12888,-1.128889 h 2.25778 c 0.63218,0 1.12889,0.496712 1.12889,1.128889 v 4.515556 c 0,0.632178 -0.49671,1.128889 -1.12889,1.128889 z" />
          <path
             inkscape:connector-curvature="0"
             id="path4512"
             style="font-style:normal;font-variant:normal;font-weight:normal;font-stretch:normal;font-size:22.57777786px;font-family:'Tenby Five';-inkscape-font-specification:'Tenby Five';fill:#000000;fill-opacity:1;stroke-width:0.26458332"
             d="m 138.79859,56.357138 v -4.515556 h -2.25778 v 15.804445 h 5.64445 c 1.87395,0 3.38666,-1.512712 3.38666,-3.386667 v -4.515556 c 0,-1.873955 -1.51271,-3.386666 -3.38666,-3.386666 z m 4.51555,7.902222 c 0,0.632178 -0.49671,1.128889 -1.12888,1.128889 h -3.38667 v -6.773334 h 3.38667 c 0.63217,0 1.12888,0.496712 1.12888,1.128889 z" />
          <path
             inkscape:connector-curvature="0"
             id="path4514"
             style="font-style:normal;font-variant:normal;font-weight:normal;font-stretch:normal;font-size:22.57777786px;font-family:'Tenby Five';-inkscape-font-specification:'Tenby Five';fill:#000000;fill-opacity:1;stroke-width:0.26458332"
             d="m 153.02788,67.646027 c 1.87395,0 3.38667,-1.512712 3.38667,-3.386667 v -4.515556 c 0,-1.873955 -1.51272,-3.386666 -3.38667,-3.386666 h -2.25778 c -1.87395,0 -3.38667,1.512711 -3.38667,3.386666 v 4.515556 c 0,1.873955 1.51272,3.386667 3.38667,3.386667 z m -2.25778,-2.257778 c -0.63218,0 -1.12889,-0.496711 -1.12889,-1.128889 v -4.515556 c 0,-0.632177 0.49671,-1.128889 1.12889,-1.128889 h 2.25778 c 0.63218,0 1.12889,0.496712 1.12889,1.128889 v 4.515556 c 0,0.632178 -0.49671,1.128889 -1.12889,1.128889 z" />
          <path
             inkscape:connector-curvature="0"
             id="path4516"
             style="font-style:normal;font-variant:normal;font-weight:normal;font-stretch:normal;font-size:22.57777786px;font-family:'Tenby Five';-inkscape-font-specification:'Tenby Five';fill:#000000;fill-opacity:1;stroke-width:0.26458332"
             d="m 159.8118,64.25936 c 0,1.873955 1.51271,3.386667 3.38666,3.386667 h 1.58045 l 0.67733,-2.257778 h -2.25778 c -0.63218,0 -1.12889,-0.496711 -1.12889,-1.128889 v -5.644445 h 2.70934 l 0.67733,-2.257777 h -3.38667 v -4.515556 h -2.25777 v 4.515556 h -1.58045 l -0.67733,2.257777 h 2.25778 z" />
          <path
             inkscape:connector-curvature="0"
             id="path4518"
             style="font-style:normal;font-variant:normal;font-weight:normal;font-stretch:normal;font-size:22.57777786px;font-family:'Tenby Five';-inkscape-font-specification:'Tenby Five';fill:#000000;fill-opacity:1;stroke-width:0.26458332"
             d="m 166.79151,67.646027 h 2.25778 V 56.357138 h -2.25778 z m 0,-13.546667 h 2.25778 v -2.257778 h -2.25778 z" />
          <path
             inkscape:connector-curvature="0"
             id="path4520"
             style="font-style:normal;font-variant:normal;font-weight:normal;font-stretch:normal;font-size:22.57777786px;font-family:'Tenby Five';-inkscape-font-specification:'Tenby Five';fill:#000000;fill-opacity:1;stroke-width:0.26458332"
             d="m 171.06365,64.25936 c 0,1.873955 1.51271,3.386667 3.38667,3.386667 h 4.74133 l 0.45155,-2.257778 h -5.19288 c -0.63218,0 -1.12889,-0.496711 -1.12889,-1.128889 v -4.515556 c 0,-0.632177 0.49671,-1.128889 1.12889,-1.128889 h 5.19288 l -0.67733,-2.257777 h -4.51555 c -1.87396,0 -3.38667,1.512711 -3.38667,3.386666 z" />
          <path
             inkscape:connector-curvature="0"
             id="path4522"
             style="font-style:normal;font-variant:normal;font-weight:normal;font-stretch:normal;font-size:22.57777786px;font-family:'Tenby Five';-inkscape-font-specification:'Tenby Five';fill:#000000;fill-opacity:1;stroke-width:0.26458332"
             d="m 186.40419,58.614915 c 0.63218,0 1.12889,0.496712 1.12889,1.128889 v 1.128889 h -3.38667 c -1.87395,0 -3.38666,1.512711 -3.38666,3.386667 0,1.873955 1.51271,3.386667 3.38666,3.386667 h 5.64445 v -7.902223 c 0,-1.873955 -1.51271,-3.386666 -3.38667,-3.386666 h -4.51556 l -0.67733,2.257777 z m -2.25778,6.773334 c -0.63218,0 -1.12889,-0.496711 -1.12889,-1.128889 0,-0.632178 0.49671,-1.128889 1.12889,-1.128889 h 3.38667 v 2.257778 z" />
        </g>
        <path
           style="display:inline;opacity:1;vector-effect:none;fill:#000000;fill-opacity:1;stroke:#090000;stroke-width:2.13545203;stroke-linecap:butt;stroke-linejoin:miter;stroke-miterlimit:4;stroke-dasharray:none;stroke-dashoffset:0;stroke-opacity:1"
           d="m 148.7354,53.35329 h 6.35"
           id="path4496"
           inkscape:connector-curvature="0" />
      </g>
      <path
         inkscape:connector-curvature="0"
         id="path4496-8"
         d="M -36.023919,-23.51075 H 4.6469316"
         style="display:inline;opacity:1;vector-effect:none;fill:#9d752c;fill-opacity:1;stroke:#149726;stroke-width:10.12057686;stroke-linecap:butt;stroke-linejoin:miter;stroke-miterlimit:4;stroke-dasharray:none;stroke-dashoffset:0;stroke-opacity:1" />
      <path
         sodipodi:nodetypes="ccccc"
         inkscape:connector-curvature="0"
         id="path4496-3-6"
         d="M -25.829451,51.096464 V 91.76834 H -5.5475384 V 51.096464 Z"
         style="color:#000000;font-style:normal;font-variant:normal;font-weight:normal;font-stretch:normal;font-size:medium;line-height:normal;font-family:sans-serif;font-variant-ligatures:normal;font-variant-position:normal;font-variant-caps:normal;font-variant-numeric:normal;font-variant-alternates:normal;font-feature-settings:normal;text-indent:0;text-align:start;text-decoration:none;text-decoration-line:none;text-decoration-style:solid;text-decoration-color:#000000;letter-spacing:normal;word-spacing:normal;text-transform:none;writing-mode:lr-tb;direction:ltr;text-orientation:mixed;dominant-baseline:auto;baseline-shift:baseline;text-anchor:start;white-space:normal;shape-padding:0;clip-rule:nonzero;display:inline;overflow:visible;visibility:visible;opacity:1;isolation:auto;mix-blend-mode:normal;color-interpolation:sRGB;color-interpolation-filters:linearRGB;solid-color:#000000;solid-opacity:1;vector-effect:none;fill:#3813aa;fill-opacity:1;fill-rule:nonzero;stroke:none;stroke-width:14.98899174;stroke-linecap:butt;stroke-linejoin:miter;stroke-miterlimit:4;stroke-dasharray:none;stroke-dashoffset:0;stroke-opacity:1;color-rendering:auto;image-rendering:auto;shape-rendering:auto;text-rendering:auto;enable-background:accumulate" />
      <path
         inkscape:connector-curvature="0"
         id="path4514-2"
         style="font-style:normal;font-variant:normal;font-weight:normal;font-stretch:normal;font-size:22.57777786px;line-height:1.25;font-family:'Tenby Five';-inkscape-font-specification:'Tenby Five';letter-spacing:0px;word-spacing:0px;display:inline;fill:#ea210c;fill-opacity:1;stroke:none;stroke-width:1.56451213"
         d="m -8.4581188,48.720634 c 12.0023901,0 21.6911398,-8.25809 21.6911398,-18.48826 V 5.5813693 c 0,-10.230163 -9.6887497,-18.4882503 -21.6911398,-18.4882503 H -22.91888 c -12.002379,0 -21.691128,8.2580873 -21.691128,18.4882503 V 30.232374 c 0,10.23017 9.688749,18.48826 21.691128,18.48826 z M -22.91888,36.395134 c -4.04902,0 -7.230381,-2.71161 -7.230381,-6.16276 V 5.5813693 c 0,-3.451138 3.181361,-6.16275203 7.230381,-6.16275203 h 14.4607612 c 4.049029,0 7.2303802,2.71161403 7.2303802,6.16275203 V 30.232374 c 0,3.45115 -3.1813512,6.16276 -7.2303802,6.16276 z" />
      <g
         id="text4545"
         style="font-style:normal;font-weight:normal;font-size:54.26235199px;line-height:1.25;font-family:sans-serif;letter-spacing:0px;word-spacing:0px;display:inline;fill:#3813aa;fill-opacity:1;stroke:none;stroke-width:1.3565588"
         transform="matrix(1.1270676,0,0,0.88725827,-169.97101,-17.147549)"
         aria-label="Y">
        <path
           sodipodi:nodetypes="csccssssccscccc"
           inkscape:connector-curvature="0"
           id="path4547"
           style="font-style:normal;font-variant:normal;font-weight:normal;font-stretch:normal;font-size:260.45925903px;font-family:'Tenby Five';-inkscape-font-specification:'Tenby Five';fill:#3813aa;fill-opacity:1;stroke-width:1.3565588"
           d="m 147.56376,106.2861 c 21.61812,0 29.67874,-7.416726 29.67874,-33.104736 V 8.0665497 H 165.2818 V 73.181364 c 0,7.29286 -8.07759,13.022963 -15.37045,13.022963 h -26.04592 c -7.29286,0 -15.37056,-5.730103 -15.37056,-13.022963 V 8.0665497 H 96.534164 V 73.181364 c 0,21.618119 8.060626,33.104736 29.678746,33.104736 l -2.34748,21.59856 h 26.04592 z" />
      </g>
    </g>
  </g>
</svg>
