<?xml version="1.0" encoding="UTF-8" standalone="no"?>
<!-- Created with Inkscape (http://www.inkscape.org/) -->

<svg
   xmlns:dc="http://purl.org/dc/elements/1.1/"
   xmlns:cc="http://creativecommons.org/ns#"
   xmlns:rdf="http://www.w3.org/1999/02/22-rdf-syntax-ns#"
   xmlns:svg="http://www.w3.org/2000/svg"
   xmlns="http://www.w3.org/2000/svg"
   xmlns:sodipodi="http://sodipodi.sourceforge.net/DTD/sodipodi-0.dtd"
   xmlns:inkscape="http://www.inkscape.org/namespaces/inkscape"
   width="367.64789mm"
   height="71.028336mm"
   viewBox="0 0 367.64789 71.028336"
   version="1.1"
   id="svg8"
   inkscape:version="0.92.2 2405546, 2018-03-11"
   sodipodi:docname="logo_name.svg"
   inkscape:export-filename="/home/jorge/companies/serendeepia/configuration_management/images/logo_name.png"
   inkscape:export-xdpi="69.087845"
   inkscape:export-ydpi="69.087845">
  <defs
     id="defs2" />
  <sodipodi:namedview
     id="base"
     pagecolor="#ffffff"
     bordercolor="#666666"
     borderopacity="1.0"
     inkscape:pageopacity="0.0"
     inkscape:pageshadow="2"
     inkscape:zoom="0.70000001"
     inkscape:cx="390.61219"
     inkscape:cy="20.692195"
     inkscape:document-units="mm"
     inkscape:current-layer="text4662-7"
     showgrid="false"
     inkscape:window-width="2560"
     inkscape:window-height="1413"
     inkscape:window-x="0"
     inkscape:window-y="27"
     inkscape:window-maximized="1"
     fit-margin-top="10"
     fit-margin-left="10"
     fit-margin-right="10"
     fit-margin-bottom="10" />
  <metadata
     id="metadata5">
    <rdf:RDF>
      <cc:Work
         rdf:about="">
        <dc:format>image/svg+xml</dc:format>
        <dc:type
           rdf:resource="http://purl.org/dc/dcmitype/StillImage" />
        <dc:title></dc:title>
      </cc:Work>
    </rdf:RDF>
  </metadata>
  <g
     inkscape:label="Layer 1"
     inkscape:groupmode="layer"
     id="layer1"
     transform="translate(63.805932,-199.48583)">
    <g
       id="g5240">
      <g
         transform="matrix(0.51160044,0,0,0.5116014,-53.805929,108.5685)"
         id="g4673">
        <path
           style="opacity:1;fill:#4c3b8d;fill-opacity:1;fill-rule:evenodd;stroke:none;stroke-width:0.57851237;stroke-linecap:round;stroke-linejoin:round;stroke-miterlimit:4;stroke-dasharray:none;stroke-opacity:1"
           d="M 56.142035,296.62142 A 50,50 0 0 0 99.621421,240.85806 50,50 0 0 0 99.25136,238.54141 46,46 0 0 1 59.129291,288.19059 46,46 0 0 1 7.8267835,248.18985 46,46 0 0 1 45.51248,197.25773 50,50 0 0 0 43.85806,197.37868 50,50 0 0 0 0.37867378,253.14204 50,50 0 0 0 56.142035,296.62142 Z"
           id="path815"
           inkscape:connector-curvature="0"
           inkscape:export-xdpi="12.223492"
           inkscape:export-ydpi="12.223492" />
        <path
           style="opacity:1;fill:#5b47a9;fill-opacity:1;fill-rule:evenodd;stroke:none;stroke-width:0.50197619;stroke-linecap:round;stroke-linejoin:round;stroke-miterlimit:4;stroke-dasharray:none;stroke-opacity:1"
           d="m 31.932321,203.55968 a 43.385089,43.385089 0 0 0 -15.345989,59.40572 43.385089,43.385089 0 0 0 1.094814,1.71618 39.914281,39.914281 0 0 1 14.785691,-53.37923 39.914281,39.914281 0 0 1 54.653333,14.118 39.914281,39.914281 0 0 1 -12.40322,53.55881 43.385089,43.385089 0 0 0 1.275099,-0.66776 43.385089,43.385089 0 0 0 15.34599,-59.40573 43.385089,43.385089 0 0 0 -59.405718,-15.34599 z"
           id="path815-9"
           inkscape:connector-curvature="0"
           inkscape:export-xdpi="12.223492"
           inkscape:export-ydpi="12.223492" />
        <path
           style="opacity:1;fill:#705dbb;fill-opacity:1;fill-rule:evenodd;stroke:none;stroke-width:0.4254145;stroke-linecap:round;stroke-linejoin:round;stroke-miterlimit:4;stroke-dasharray:none;stroke-opacity:1"
           d="m 88.832474,246.18156 a 36.012849,37.538927 0 0 0 -37.86498,-35.50354 36.012849,37.538927 0 0 0 -1.683191,0.15497 33.131821,34.535814 0 0 1 33.64194,32.66673 33.131821,34.535814 0 0 1 -31.335206,36.31217 33.131821,34.535814 0 0 1 -34.686965,-30.90974 36.012849,37.538927 0 0 0 0.0031,1.24542 36.012849,37.538927 0 0 0 37.864994,35.50355 36.012849,37.538927 0 0 0 34.060207,-39.46956 z"
           id="path815-9-3"
           inkscape:connector-curvature="0"
           inkscape:export-xdpi="12.223492"
           inkscape:export-ydpi="12.223492" />
        <path
           style="opacity:1;fill:#8979c7;fill-opacity:1;fill-rule:evenodd;stroke:none;stroke-width:0.36114374;stroke-linecap:round;stroke-linejoin:round;stroke-miterlimit:4;stroke-dasharray:none;stroke-opacity:1"
           d="m 37.680004,272.55631 a 31.867623,30.572102 25.125067 0 0 40.936396,-16.30582 31.867623,30.572102 25.125067 0 0 0.487592,-1.34957 29.318213,28.126333 25.125067 0 1 -37.233825,14.08251 29.318213,28.126333 25.125067 0 1 -16.614797,-37.17289 29.318213,28.126333 25.125067 0 1 36.260083,-15.51901 31.867623,30.572102 25.125067 0 0 -0.958361,-0.4465 31.867623,30.572102 25.125067 0 0 -40.936412,16.30583 31.867623,30.572102 25.125067 0 0 18.059343,40.4054 z"
           id="path815-9-3-6"
           inkscape:connector-curvature="0"
           inkscape:export-xdpi="12.223492"
           inkscape:export-ydpi="12.223492" />
        <path
           style="opacity:1;fill:#a295d3;fill-opacity:1;fill-rule:evenodd;stroke:none;stroke-width:0.30291089;stroke-linecap:round;stroke-linejoin:round;stroke-miterlimit:4;stroke-dasharray:none;stroke-opacity:1"
           d="m 39.285996,221.45846 a 25.677483,26.692672 34.794963 0 0 -7.927864,36.67942 25.677483,26.692672 34.794963 0 0 0.692622,0.99248 23.623284,24.557259 34.794979 0 1 7.720704,-33.00197 23.623284,24.557259 34.794979 0 1 33.048942,6.17097 23.623284,24.557259 34.794979 0 1 -6.289329,33.00678 25.677483,26.692672 34.794963 0 0 0.749823,-0.46043 25.677483,26.692672 34.794963 0 0 7.927856,-36.67944 25.677483,26.692672 34.794963 0 0 -35.922731,-6.70776 z"
           id="path815-9-3-6-0"
           inkscape:connector-curvature="0"
           inkscape:export-xdpi="12.223492"
           inkscape:export-ydpi="12.223492" />
        <path
           style="opacity:1;fill:#bbb1df;fill-opacity:1;fill-rule:evenodd;stroke:none;stroke-width:0.23503563;stroke-linecap:round;stroke-linejoin:round;stroke-miterlimit:4;stroke-dasharray:none;stroke-opacity:1"
           d="m 72.51707,246.00102 a 20.739737,19.896602 89.442858 0 0 -21.109614,-19.41086 20.739737,19.896602 89.442858 0 0 -0.92908,0.0947 19.080559,18.304874 89.442858 0 1 18.761329,17.86632 19.080559,18.304874 89.442858 0 1 -17.116367,20.22937 19.080559,18.304874 89.442858 0 1 -19.329221,-16.89006 20.739737,19.896602 89.442858 0 0 0.0085,0.68805 20.739737,19.896602 89.442858 0 0 21.10963,19.41086 20.739737,19.896602 89.442858 0 0 18.604863,-21.98834 z"
           id="path815-9-3-6-0-6"
           inkscape:connector-curvature="0"
           inkscape:export-xdpi="12.223492"
           inkscape:export-ydpi="12.223492" />
        <path
           style="opacity:1;fill:#cdc6e8;fill-opacity:1;fill-rule:evenodd;stroke:none;stroke-width:0.18522185;stroke-linecap:round;stroke-linejoin:round;stroke-miterlimit:4;stroke-dasharray:none;stroke-opacity:1"
           d="m 43.243263,259.05121 a 16.344127,15.679687 28.407533 0 0 21.439666,-7.14697 16.344127,15.679687 28.407533 0 0 0.289309,-0.67671 15.036597,14.425312 28.407533 0 1 -19.478537,6.11732 15.036597,14.425312 28.407533 0 1 -7.415709,-19.52172 15.036597,14.425312 28.407533 0 1 19.022146,-6.88144 16.344127,15.679687 28.407533 0 0 -0.477629,-0.25674 16.344127,15.679687 28.407533 0 0 -21.439671,7.14698 16.344127,15.679687 28.407533 0 0 8.060434,21.2193 z"
           id="path815-9-3-6-0-6-2"
           inkscape:connector-curvature="0"
           inkscape:export-xdpi="12.223492"
           inkscape:export-ydpi="12.223492" />
        <path
           style="opacity:1;fill:#e0dbf1;fill-opacity:1;fill-rule:evenodd;stroke:none;stroke-width:0.14814302;stroke-linecap:round;stroke-linejoin:round;stroke-miterlimit:4;stroke-dasharray:none;stroke-opacity:1"
           d="m 43.069269,235.03128 a 12.540833,13.07226 49.398815 0 0 -0.805885,18.05743 12.540833,13.07226 49.398815 0 0 0.422437,0.40993 11.537566,12.02648 49.398815 0 1 1.012862,-16.29799 11.537566,12.02648 49.398815 0 1 16.702242,0.0557 11.537566,12.02648 49.398815 0 1 -0.311505,16.17612 12.540833,13.07226 49.398815 0 0 0.328564,-0.28311 12.540833,13.07226 49.398815 0 0 0.80587,-18.05744 12.540833,13.07226 49.398815 0 0 -18.154595,-0.0607 z"
           id="path815-9-3-6-0-6-2-6"
           inkscape:connector-curvature="0"
           inkscape:export-xdpi="12.223492"
           inkscape:export-ydpi="12.223492" />
        <path
           style="opacity:1;fill:#ece9f7;fill-opacity:1;fill-rule:evenodd;stroke:none;stroke-width:0.10460758;stroke-linecap:round;stroke-linejoin:round;stroke-miterlimit:4;stroke-dasharray:none;stroke-opacity:1"
           d="m 59.498278,242.04844 a 9.230658,8.8554032 69.368048 0 0 -11.789846,-4.88944 9.230658,8.8554032 69.368048 0 0 -0.373929,0.1815 8.492206,8.1469714 69.368048 0 1 10.572245,4.60251 8.492206,8.1469714 69.368048 0 1 -4.064731,11.07137 8.492206,8.1469714 69.368048 0 1 -10.660492,-4.10765 9.230658,8.8554032 69.368048 0 0 0.108659,0.28633 9.230658,8.8554032 69.368048 0 0 11.78985,4.88943 9.230658,8.8554032 69.368048 0 0 4.418302,-12.03403 z"
           id="path815-9-3-6-0-6-2-6-1"
           inkscape:connector-curvature="0"
           inkscape:export-xdpi="12.223492"
           inkscape:export-ydpi="12.223492" />
      </g>
      <g
         aria-label="Serendeepia"
         transform="scale(1.000003,0.99999697)"
         style="font-style:normal;font-variant:normal;font-weight:normal;font-stretch:normal;font-size:50.37749481px;line-height:125%;font-family:sans-serif;-inkscape-font-specification:sans-serif;letter-spacing:0px;word-spacing:0px;fill:#000000;fill-opacity:1;stroke:none;stroke-width:0.26238275px;stroke-linecap:butt;stroke-linejoin:miter;stroke-opacity:1"
         id="text4662-7">
        <path
           d="m 18.620917,248.50232 c 8.66984,0 12.778983,-4.33492 12.778983,-9.39233 0,-11.60494 -18.739498,-7.22486 -18.739498,-13.95302 0,-2.39324 1.986838,-4.28977 6.863623,-4.28977 2.754481,0 5.870205,0.8128 8.714996,2.48355 l 1.851372,-4.5607 c -2.75448,-1.80621 -6.728157,-2.79963 -10.521212,-2.79963 -8.669841,0 -12.7338282,4.33492 -12.7338282,9.43748 0,11.74041 18.7846542,7.27002 18.7846542,14.08849 0,2.34808 -2.077149,4.10914 -6.99909,4.10914 -3.883366,0 -7.902198,-1.44497 -10.4309016,-3.47696 l -2.0319939,4.5607 c 2.6190143,2.25777 7.5409545,3.79305 12.4628955,3.79305 z"
           style="font-style:normal;font-variant:normal;font-weight:600;font-stretch:normal;font-size:45.1554184px;font-family:Montserrat;-inkscape-font-specification:'Montserrat Semi-Bold';fill:#5945a6;fill-opacity:1;stroke-width:0.26238275px"
           id="path833" />
        <path
           d="m 59.346871,236.12974 c 0,-7.54096 -5.147717,-12.4629 -12.191963,-12.4629 -7.179711,0 -12.462895,5.14772 -12.462895,12.32743 0,7.17971 5.238029,12.37258 13.320848,12.37258 4.154299,0 7.540955,-1.35466 9.708415,-3.92852 l -3.025413,-3.47696 c -1.715906,1.76106 -3.83821,2.61901 -6.547535,2.61901 -4.199454,0 -7.134556,-2.25777 -7.811888,-5.77989 h 18.920121 c 0.04516,-0.54187 0.09031,-1.2192 0.09031,-1.67075 z m -12.191963,-7.94736 c 3.702745,0 6.366914,2.39324 6.818469,5.87021 H 40.291285 c 0.541865,-3.52213 3.206035,-5.87021 6.863623,-5.87021 z"
           style="font-style:normal;font-variant:normal;font-weight:600;font-stretch:normal;font-size:45.1554184px;font-family:Montserrat;-inkscape-font-specification:'Montserrat Semi-Bold';fill:#5945a6;fill-opacity:1;stroke-width:0.26238275px"
           id="path835" />
        <path
           d="m 70.098096,227.4599 v -3.52213 h -5.373495 v 24.113 h 5.644427 v -11.69526 c 0,-4.92194 2.709325,-7.45064 6.99909,-7.45064 0.406399,0 0.812798,0.0452 1.309507,0.13546 v -5.37349 c -4.018832,0 -6.953934,1.26435 -8.579529,3.79306 z"
           style="font-style:normal;font-variant:normal;font-weight:600;font-stretch:normal;font-size:45.1554184px;font-family:Montserrat;-inkscape-font-specification:'Montserrat Semi-Bold';fill:#5945a6;fill-opacity:1;stroke-width:0.26238275px"
           id="path837" />
        <path
           d="m 105.9134,236.12974 c 0,-7.54096 -5.14772,-12.4629 -12.191967,-12.4629 -7.179712,0 -12.462895,5.14772 -12.462895,12.32743 0,7.17971 5.238028,12.37258 13.320848,12.37258 4.154298,0 7.540954,-1.35466 9.708414,-3.92852 l -3.02541,-3.47696 c -1.715908,1.76106 -3.838213,2.61901 -6.547538,2.61901 -4.199454,0 -7.134556,-2.25777 -7.811887,-5.77989 h 18.920125 c 0.0452,-0.54187 0.0903,-1.2192 0.0903,-1.67075 z m -12.191967,-7.94736 c 3.702744,0 6.366917,2.39324 6.818467,5.87021 H 86.857809 c 0.541865,-3.52213 3.206035,-5.87021 6.863624,-5.87021 z"
           style="font-style:normal;font-variant:normal;font-weight:600;font-stretch:normal;font-size:45.1554184px;font-family:Montserrat;-inkscape-font-specification:'Montserrat Semi-Bold';fill:#5945a6;fill-opacity:1;stroke-width:0.26238275px"
           id="path839" />
        <path
           d="m 124.97321,223.66684 c -3.52212,0 -6.45722,1.17404 -8.30859,3.38666 v -3.11573 h -5.3735 v 24.113 h 5.64443 V 235.8588 c 0,-4.83163 2.70932,-7.27002 6.72816,-7.27002 3.61243,0 5.73473,2.07715 5.73473,6.36691 v 13.09508 h 5.64443 v -13.81756 c 0,-7.27002 -4.28976,-10.56637 -10.06966,-10.56637 z"
           style="font-style:normal;font-variant:normal;font-weight:600;font-stretch:normal;font-size:45.1554184px;font-family:Montserrat;-inkscape-font-specification:'Montserrat Semi-Bold';fill:#5945a6;fill-opacity:1;stroke-width:0.26238275px"
           id="path841" />
        <path
           d="m 160.48372,214.54545 v 12.37258 c -1.89653,-2.21262 -4.65101,-3.25119 -7.76673,-3.25119 -6.99909,0 -12.19197,4.83163 -12.19197,12.32743 0,7.4958 5.19288,12.37258 12.19197,12.37258 3.29634,0 6.09598,-1.12888 7.99251,-3.43181 v 3.11573 h 5.41865 v -33.50532 z m -7.0894,28.98977 c -4.06399,0 -7.17971,-2.9351 -7.17971,-7.54095 0,-4.60585 3.11572,-7.54096 7.17971,-7.54096 4.06399,0 7.17971,2.93511 7.17971,7.54096 0,4.60585 -3.11572,7.54095 -7.17971,7.54095 z"
           style="font-style:normal;font-variant:normal;font-weight:600;font-stretch:normal;font-size:45.1554184px;font-family:Montserrat;-inkscape-font-specification:'Montserrat Semi-Bold';fill:#5945a6;fill-opacity:1;stroke-width:0.26238275px"
           id="path843" />
        <path
           d="m 196.22423,236.12974 c 0,-7.54096 -5.14772,-12.4629 -12.19197,-12.4629 -7.17971,0 -12.46289,5.14772 -12.46289,12.32743 0,7.17971 5.23803,12.37258 13.32085,12.37258 4.15429,0 7.54095,-1.35466 9.70841,-3.92852 l -3.02541,-3.47696 c -1.71591,1.76106 -3.83821,2.61901 -6.54754,2.61901 -4.19945,0 -7.13455,-2.25777 -7.81189,-5.77989 h 18.92012 c 0.0452,-0.54187 0.0903,-1.2192 0.0903,-1.67075 z m -12.19197,-7.94736 c 3.70275,0 6.36692,2.39324 6.81847,5.87021 h -13.68209 c 0.54186,-3.52213 3.20603,-5.87021 6.86362,-5.87021 z"
           style="font-style:normal;font-variant:normal;font-weight:600;font-stretch:normal;font-size:45.1554184px;font-family:Montserrat;-inkscape-font-specification:'Montserrat Semi-Bold';fill:#5945a6;fill-opacity:1;stroke-width:0.26238275px"
           id="path845" />
        <path
           d="m 224.26999,236.12974 c 0,-7.54096 -5.14772,-12.4629 -12.19197,-12.4629 -7.17971,0 -12.46289,5.14772 -12.46289,12.32743 0,7.17971 5.23803,12.37258 13.32085,12.37258 4.15429,0 7.54095,-1.35466 9.70841,-3.92852 l -3.02541,-3.47696 c -1.71591,1.76106 -3.83821,2.61901 -6.54754,2.61901 -4.19945,0 -7.13455,-2.25777 -7.81188,-5.77989 h 18.92012 c 0.0452,-0.54187 0.0903,-1.2192 0.0903,-1.67075 z m -12.19197,-7.94736 c 3.70275,0 6.36692,2.39324 6.81847,5.87021 H 205.2144 c 0.54186,-3.52213 3.20603,-5.87021 6.86362,-5.87021 z"
           style="font-style:normal;font-variant:normal;font-weight:600;font-stretch:normal;font-size:45.1554184px;font-family:Montserrat;-inkscape-font-specification:'Montserrat Semi-Bold';fill:#5945a6;fill-opacity:1;stroke-width:0.26238275px"
           id="path847" />
        <path
           d="m 243.01372,223.66684 c -3.29635,0 -6.09599,1.12889 -7.99251,3.43181 v -3.16088 h -5.3735 v 32.87315 h 5.64443 v -11.69526 c 1.94168,2.21262 4.65101,3.25119 7.72158,3.25119 7.04424,0 12.23711,-4.87678 12.23711,-12.37258 0,-7.45064 -5.19287,-12.32743 -12.23711,-12.32743 z m -0.63218,19.86838 c -4.06399,0 -7.17971,-2.9351 -7.17971,-7.54095 0,-4.60585 3.11572,-7.54096 7.17971,-7.54096 4.06399,0 7.13456,2.93511 7.13456,7.54096 0,4.60585 -3.07057,7.54095 -7.13456,7.54095 z"
           style="font-style:normal;font-variant:normal;font-weight:600;font-stretch:normal;font-size:45.1554184px;font-family:Montserrat;-inkscape-font-specification:'Montserrat Semi-Bold';fill:#5945a6;fill-opacity:1;stroke-width:0.26238275px"
           id="path849" />
        <path
           d="m 263.44865,219.9641 c 2.1223,0 3.61243,-1.53529 3.61243,-3.52213 0,-1.85137 -1.53528,-3.25119 -3.61243,-3.25119 -2.07715,0 -3.61243,1.49013 -3.61243,3.38666 0,1.89653 1.53528,3.38666 3.61243,3.38666 z m -2.84479,28.08667 h 5.64443 v -24.113 h -5.64443 z"
           style="font-style:normal;font-variant:normal;font-weight:600;font-stretch:normal;font-size:45.1554184px;font-family:Montserrat;-inkscape-font-specification:'Montserrat Semi-Bold';fill:#5945a6;fill-opacity:1;stroke-width:0.26238275px"
           id="path851" />
        <path
           d="m 282.86831,223.66684 c -3.88336,0 -7.63126,0.99342 -10.20512,2.98026 l 2.21261,4.10914 c 1.80622,-1.49013 4.60586,-2.39324 7.31518,-2.39324 4.01883,0 6.00567,1.94169 6.00567,5.23803 v 0.36125 h -6.23145 c -7.31517,0 -10.0245,3.16087 -10.0245,7.17971 0,4.19945 3.47697,7.22486 8.98593,7.22486 3.61243,0 6.23145,-1.17404 7.58611,-3.25119 v 2.93511 h 5.32834 v -14.13365 c 0,-6.95393 -4.01883,-10.25028 -10.97277,-10.25028 z m -0.76764,20.59087 c -2.88995,0 -4.60585,-1.30951 -4.60585,-3.3415 0,-1.76106 1.03857,-3.20603 4.87678,-3.20603 h 5.82505 v 2.79963 c -0.94826,2.48355 -3.3415,3.7479 -6.09598,3.7479 z"
           style="font-style:normal;font-variant:normal;font-weight:600;font-stretch:normal;font-size:45.1554184px;font-family:Montserrat;-inkscape-font-specification:'Montserrat Semi-Bold';fill:#5945a6;fill-opacity:1;stroke-width:0.26238275px"
           id="path853" />
      </g>
    </g>
  </g>
</svg>
