<?xml version="1.0" encoding="UTF-8" standalone="no"?>
<!-- Created with Inkscape (http://www.inkscape.org/) -->

<svg
   xmlns:dc="http://purl.org/dc/elements/1.1/"
   xmlns:cc="http://creativecommons.org/ns#"
   xmlns:rdf="http://www.w3.org/1999/02/22-rdf-syntax-ns#"
   xmlns:svg="http://www.w3.org/2000/svg"
   xmlns="http://www.w3.org/2000/svg"
   xmlns:sodipodi="http://sodipodi.sourceforge.net/DTD/sodipodi-0.dtd"
   xmlns:inkscape="http://www.inkscape.org/namespaces/inkscape"
   width="208.55696"
   height="56.837021"
   viewBox="0 0 104.28058 28.419078"
   version="1.1"
   id="svg8"
   inkscape:version="0.92.1 r15371"
   sodipodi:docname="psicobotica_by_serendeepia.svg"
   inkscape:export-filename="D:\Dropbox-Array2001\Dropbox\Work\Psicobotica\Logo\psicobotica_bySerendeepia_1200.png"
   inkscape:export-xdpi="574.40002"
   inkscape:export-ydpi="574.40002">
  <defs
     id="defs2">
    <inkscape:perspective
       sodipodi:type="inkscape:persp3d"
       inkscape:vp_x="-23.104461 : 41.088082 : 1"
       inkscape:vp_y="0 : 2492.5538 : 0"
       inkscape:vp_z="314.14854 : 41.088082 : 1"
       inkscape:persp3d-origin="145.52205 : 4.6953856 : 1"
       id="perspective4550" />
    <clipPath
       id="clipPath3649"
       clipPathUnits="userSpaceOnUse">
      <rect
         id="rect3651"
         style="fill:url(#linearGradient3653);stroke:#999999;stroke-width:24.76499939"
         ry="0.14455"
         height="395.23001"
         width="450.23001"
         y="27.18"
         x="304.35001" />
    </clipPath>
    <clipPath
       id="clipPath3649-6"
       clipPathUnits="userSpaceOnUse">
      <rect
         id="rect3651-4"
         style="fill:url(#linearGradient3653);stroke:#999999;stroke-width:24.76499939"
         ry="0.14455"
         height="395.23001"
         width="450.23001"
         y="27.18"
         x="304.35001" />
    </clipPath>
  </defs>
  <sodipodi:namedview
     id="base"
     pagecolor="#ffffff"
     bordercolor="#666666"
     borderopacity="1.0"
     inkscape:pageopacity="0.0"
     inkscape:pageshadow="2"
     inkscape:zoom="4"
     inkscape:cx="4.49944"
     inkscape:cy="-2.3357258"
     inkscape:document-units="px"
     inkscape:current-layer="layer5"
     showgrid="true"
     inkscape:window-width="1920"
     inkscape:window-height="1001"
     inkscape:window-x="-9"
     inkscape:window-y="-9"
     inkscape:window-maximized="1"
     showguides="true"
     objecttolerance="20"
     guidetolerance="10000"
     inkscape:snap-perpendicular="false"
     inkscape:snap-tangential="false"
     inkscape:snap-grids="true"
     inkscape:snap-to-guides="true"
     units="px"
     fit-margin-top="4"
     fit-margin-left="4"
     fit-margin-bottom="4"
     fit-margin-right="4"
     scale-x="0.50001"
     gridtolerance="10">
    <inkscape:grid
       type="xygrid"
       id="grid4485"
       snapvisiblegridlinesonly="false"
       empspacing="1"
       dotted="false"
       empcolor="#324c86"
       empopacity="0.25098039"
       spacingx="0.026458333"
       spacingy="0.026458333"
       originx="-132.48359"
       originy="-484.67635"
       visible="false"
       color="#000000"
       opacity="0"
       enabled="true" />
  </sodipodi:namedview>
  <metadata
     id="metadata5">
    <rdf:RDF>
      <cc:Work
         rdf:about="">
        <dc:format>image/svg+xml</dc:format>
        <dc:type
           rdf:resource="http://purl.org/dc/dcmitype/StillImage" />
        <dc:title />
      </cc:Work>
    </rdf:RDF>
  </metadata>
  <g
     inkscape:groupmode="layer"
     id="layer5"
     inkscape:label="Sol"
     style="display:inline"
     transform="translate(-20.537595,-48.21283)">
    <path
       d="m 28.18208,66.017315 c 1.873955,0 3.386667,-1.512712 3.386667,-3.386667 v -4.515556 c 0,-1.873955 -1.512712,-3.386666 -3.386667,-3.386666 h -5.644445 v 18.154411 h 2.257778 v -6.865522 z m 1.128889,-3.386667 c 0,0.632178 -0.496711,1.128889 -1.128889,1.128889 h -3.386667 v -6.773334 h 3.386667 c 0.632178,0 1.128889,0.496712 1.128889,1.128889 z"
       style="font-style:normal;font-variant:normal;font-weight:normal;font-stretch:normal;font-size:22.57777786px;line-height:1.25;font-family:'Tenby Five';-inkscape-font-specification:'Tenby Five';letter-spacing:0px;word-spacing:0px;fill:#000000;fill-opacity:1;stroke:none;stroke-width:0.26458332"
       id="path4502"
       inkscape:connector-curvature="0"
       sodipodi:nodetypes="ssssccccsssccsss" />
    <path
       d="m 38.798927,61.501759 c 0.90311,0 1.35467,0.496711 1.35467,1.128889 0,0.632178 -0.49671,1.128889 -1.12889,1.128889 h -5.87022 l 0.67733,2.257778 h 5.19289 c 1.87395,0 3.38667,-1.512712 3.38667,-3.386667 0,-1.873956 -1.51272,-3.386667 -3.38667,-3.386667 h -2.25778 c -0.90311,0 -1.35467,-0.496711 -1.35467,-1.128889 0,-0.632177 0.49671,-1.128889 1.12889,-1.128889 h 5.64445 l -0.67734,-2.257777 h -4.96711 c -1.87395,0 -3.38666,1.512711 -3.38666,3.386666 0,1.873956 1.51271,3.386667 3.38666,3.386667 z"
       style="font-style:normal;font-variant:normal;font-weight:normal;font-stretch:normal;font-size:22.57777786px;line-height:1.25;font-family:'Tenby Five';-inkscape-font-specification:'Tenby Five';letter-spacing:0px;word-spacing:0px;fill:#000000;fill-opacity:1;stroke:none;stroke-width:0.26458332"
       id="path4504"
       inkscape:connector-curvature="0" />
    <path
       d="m 44.233467,66.017315 h 2.25778 V 54.728426 h -2.25778 z m 0,-13.546667 h 2.25778 V 50.21287 h -2.25778 z"
       style="font-style:normal;font-variant:normal;font-weight:normal;font-stretch:normal;font-size:22.57777786px;line-height:1.25;font-family:'Tenby Five';-inkscape-font-specification:'Tenby Five';letter-spacing:0px;word-spacing:0px;fill:#000000;fill-opacity:1;stroke:none;stroke-width:0.26458332"
       id="path4506"
       inkscape:connector-curvature="0" />
    <path
       d="m 48.505607,62.630648 c 0,1.873955 1.51271,3.386667 3.38667,3.386667 h 4.74133 l 0.45156,-2.257778 h -5.19289 c -0.63218,0 -1.12889,-0.496711 -1.12889,-1.128889 v -4.515556 c 0,-0.632177 0.49671,-1.128889 1.12889,-1.128889 h 5.19289 l -0.67734,-2.257777 h -4.51555 c -1.87396,0 -3.38667,1.512711 -3.38667,3.386666 z"
       style="font-style:normal;font-variant:normal;font-weight:normal;font-stretch:normal;font-size:22.57777786px;line-height:1.25;font-family:'Tenby Five';-inkscape-font-specification:'Tenby Five';letter-spacing:0px;word-spacing:0px;fill:#000000;fill-opacity:1;stroke:none;stroke-width:0.26458332"
       id="path4508"
       inkscape:connector-curvature="0" />
    <path
       d="m 64.071927,66.017315 c 1.87396,0 3.38667,-1.512712 3.38667,-3.386667 v -4.515556 c 0,-1.873955 -1.51271,-3.386666 -3.38667,-3.386666 h -2.25778 c -1.87395,0 -3.38666,1.512711 -3.38666,3.386666 v 4.515556 c 0,1.873955 1.51271,3.386667 3.38666,3.386667 z m -2.25778,-2.257778 c -0.63217,0 -1.12888,-0.496711 -1.12888,-1.128889 v -4.515556 c 0,-0.632177 0.49671,-1.128889 1.12888,-1.128889 h 2.25778 c 0.63218,0 1.12889,0.496712 1.12889,1.128889 v 4.515556 c 0,0.632178 -0.49671,1.128889 -1.12889,1.128889 z"
       style="font-style:normal;font-variant:normal;font-weight:normal;font-stretch:normal;font-size:22.57777786px;line-height:1.25;font-family:'Tenby Five';-inkscape-font-specification:'Tenby Five';letter-spacing:0px;word-spacing:0px;fill:#000000;fill-opacity:1;stroke:none;stroke-width:0.26458332"
       id="path4510"
       inkscape:connector-curvature="0" />
    <path
       d="M 71.758957,54.728426 V 50.21287 h -2.25778 v 15.804445 h 5.64445 c 1.87395,0 3.38666,-1.512712 3.38666,-3.386667 v -4.515556 c 0,-1.873955 -1.51271,-3.386666 -3.38666,-3.386666 z m 4.51555,7.902222 c 0,0.632178 -0.49671,1.128889 -1.12888,1.128889 h -3.38667 v -6.773334 h 3.38667 c 0.63217,0 1.12888,0.496712 1.12888,1.128889 z"
       style="font-style:normal;font-variant:normal;font-weight:normal;font-stretch:normal;font-size:22.57777786px;line-height:1.25;font-family:'Tenby Five';-inkscape-font-specification:'Tenby Five';letter-spacing:0px;word-spacing:0px;fill:#000000;fill-opacity:1;stroke:none;stroke-width:0.26458332"
       id="path4512"
       inkscape:connector-curvature="0" />
    <path
       d="m 85.988247,66.017315 c 1.87395,0 3.38667,-1.512712 3.38667,-3.386667 v -4.515556 c 0,-1.873955 -1.51272,-3.386666 -3.38667,-3.386666 h -2.25778 c -1.87395,0 -3.38667,1.512711 -3.38667,3.386666 v 4.515556 c 0,1.873955 1.51272,3.386667 3.38667,3.386667 z m -2.25778,-2.257778 c -0.63218,0 -1.12889,-0.496711 -1.12889,-1.128889 v -4.515556 c 0,-0.632177 0.49671,-1.128889 1.12889,-1.128889 h 2.25778 c 0.63218,0 1.12889,0.496712 1.12889,1.128889 v 4.515556 c 0,0.632178 -0.49671,1.128889 -1.12889,1.128889 z"
       style="font-style:normal;font-variant:normal;font-weight:normal;font-stretch:normal;font-size:22.57777786px;line-height:1.25;font-family:'Tenby Five';-inkscape-font-specification:'Tenby Five';letter-spacing:0px;word-spacing:0px;fill:#000000;fill-opacity:1;stroke:none;stroke-width:0.26458332"
       id="path4514"
       inkscape:connector-curvature="0" />
    <path
       d="m 92.772167,62.630648 c 0,1.873955 1.51271,3.386667 3.38666,3.386667 h 1.58045 l 0.67733,-2.257778 h -2.25778 c -0.63218,0 -1.12889,-0.496711 -1.12889,-1.128889 v -5.644445 h 2.70934 l 0.67733,-2.257777 h -3.38667 V 50.21287 h -2.25777 v 4.515556 h -1.58045 l -0.67733,2.257777 h 2.25778 z"
       style="font-style:normal;font-variant:normal;font-weight:normal;font-stretch:normal;font-size:22.57777786px;line-height:1.25;font-family:'Tenby Five';-inkscape-font-specification:'Tenby Five';letter-spacing:0px;word-spacing:0px;fill:#000000;fill-opacity:1;stroke:none;stroke-width:0.26458332"
       id="path4516"
       inkscape:connector-curvature="0" />
    <path
       d="m 99.751877,66.017315 h 2.257783 V 54.728426 h -2.257783 z m 0,-13.546667 h 2.257783 V 50.21287 h -2.257783 z"
       style="font-style:normal;font-variant:normal;font-weight:normal;font-stretch:normal;font-size:22.57777786px;line-height:1.25;font-family:'Tenby Five';-inkscape-font-specification:'Tenby Five';letter-spacing:0px;word-spacing:0px;fill:#000000;fill-opacity:1;stroke:none;stroke-width:0.26458332"
       id="path4518"
       inkscape:connector-curvature="0" />
    <path
       d="m 104.02402,62.630648 c 0,1.873955 1.51271,3.386667 3.38667,3.386667 h 4.74133 l 0.45155,-2.257778 h -5.19288 c -0.63218,0 -1.12889,-0.496711 -1.12889,-1.128889 v -4.515556 c 0,-0.632177 0.49671,-1.128889 1.12889,-1.128889 h 5.19288 l -0.67733,-2.257777 h -4.51555 c -1.87396,0 -3.38667,1.512711 -3.38667,3.386666 z"
       style="font-style:normal;font-variant:normal;font-weight:normal;font-stretch:normal;font-size:22.57777786px;line-height:1.25;font-family:'Tenby Five';-inkscape-font-specification:'Tenby Five';letter-spacing:0px;word-spacing:0px;fill:#000000;fill-opacity:1;stroke:none;stroke-width:0.26458332"
       id="path4520"
       inkscape:connector-curvature="0" />
    <path
       d="m 119.36456,56.986203 c 0.63218,0 1.12889,0.496712 1.12889,1.128889 v 1.128889 h -3.38667 c -1.87395,0 -3.38666,1.512711 -3.38666,3.386667 0,1.873955 1.51271,3.386667 3.38666,3.386667 h 5.64445 v -7.902223 c 0,-1.873955 -1.51271,-3.386666 -3.38667,-3.386666 H 114.849 l -0.67733,2.257777 z m -2.25778,6.773334 c -0.63218,0 -1.12889,-0.496711 -1.12889,-1.128889 0,-0.632178 0.49671,-1.128889 1.12889,-1.128889 h 3.38667 v 2.257778 z"
       style="font-style:normal;font-variant:normal;font-weight:normal;font-stretch:normal;font-size:22.57777786px;line-height:1.25;font-family:'Tenby Five';-inkscape-font-specification:'Tenby Five';letter-spacing:0px;word-spacing:0px;fill:#000000;fill-opacity:1;stroke:none;stroke-width:0.26458332"
       id="path4522"
       inkscape:connector-curvature="0" />
    <path
       style="display:inline;opacity:1;vector-effect:none;fill:#000000;fill-opacity:1;stroke:#090000;stroke-width:2.13545203;stroke-linecap:butt;stroke-linejoin:miter;stroke-miterlimit:4;stroke-dasharray:none;stroke-dashoffset:0;stroke-opacity:1"
       d="m 81.695767,51.724578 h 6.35"
       id="path4496"
       inkscape:connector-curvature="0" />
    <text
       xml:space="preserve"
       style="font-style:normal;font-variant:normal;font-weight:normal;font-stretch:normal;font-size:7.80015612px;line-height:1.25;font-family:'Bauhaus 93';-inkscape-font-specification:'Bauhaus 93, ';letter-spacing:0px;word-spacing:0px;fill:#000000;fill-opacity:1;stroke:none;stroke-width:0.1950039"
       x="62.022121"
       y="73.071838"
       id="text8846"><tspan
         sodipodi:role="line"
         id="tspan8844"
         x="62.022121"
         y="73.071838"
         style="font-style:normal;font-variant:normal;font-weight:normal;font-stretch:normal;font-family:Montserrat;-inkscape-font-specification:Montserrat;stroke-width:0.1950039">by Serendeepia</tspan></text>
  </g>
</svg>
