<?xml version="1.0" encoding="UTF-8" standalone="no"?>
<!-- Created with Inkscape (http://www.inkscape.org/) -->

<svg
   xmlns:dc="http://purl.org/dc/elements/1.1/"
   xmlns:cc="http://creativecommons.org/ns#"
   xmlns:rdf="http://www.w3.org/1999/02/22-rdf-syntax-ns#"
   xmlns:svg="http://www.w3.org/2000/svg"
   xmlns="http://www.w3.org/2000/svg"
   xmlns:sodipodi="http://sodipodi.sourceforge.net/DTD/sodipodi-0.dtd"
   xmlns:inkscape="http://www.inkscape.org/namespaces/inkscape"
   width="369.85031mm"
   height="104.50013mm"
   viewBox="0 0 369.85031 104.50014"
   version="1.1"
   id="svg8"
   sodipodi:docname="sello.svg"
   inkscape:export-filename="/home/jorge/companies/serendeepia/configuration_management/images/sello.png"
   inkscape:export-xdpi="72.934372"
   inkscape:export-ydpi="72.934372"
   inkscape:version="0.92.2 2405546, 2018-03-11">
  <defs
     id="defs2" />
  <sodipodi:namedview
     id="base"
     pagecolor="#ffffff"
     bordercolor="#666666"
     borderopacity="1.0"
     inkscape:pageopacity="0.0"
     inkscape:pageshadow="2"
     inkscape:zoom="0.35"
     inkscape:cx="-668.66095"
     inkscape:cy="404.23366"
     inkscape:document-units="mm"
     inkscape:current-layer="layer1-3"
     showgrid="false"
     fit-margin-left="10"
     fit-margin-top="10"
     fit-margin-bottom="10"
     fit-margin-right="10"
     inkscape:window-width="2560"
     inkscape:window-height="1413"
     inkscape:window-x="0"
     inkscape:window-y="27"
     inkscape:window-maximized="1" />
  <metadata
     id="metadata5">
    <rdf:RDF>
      <cc:Work
         rdf:about="">
        <dc:format>image/svg+xml</dc:format>
        <dc:type
           rdf:resource="http://purl.org/dc/dcmitype/StillImage" />
        <dc:title></dc:title>
      </cc:Work>
    </rdf:RDF>
  </metadata>
  <g
     inkscape:label="Layer 1"
     inkscape:groupmode="layer"
     id="layer1"
     transform="translate(305.38109,-96.10216)">
    <g
       transform="translate(-256.84539,-130.0119)"
       id="layer1-3"
       inkscape:label="Layer 1">
      <g
         transform="matrix(0.84421914,0,0,0.84422072,-38.535691,69.88055)"
         id="g4673">
        <path
           style="opacity:1;fill:#4c3b8d;fill-opacity:1;fill-rule:evenodd;stroke:none;stroke-width:0.57851237;stroke-linecap:round;stroke-linejoin:round;stroke-miterlimit:4;stroke-dasharray:none;stroke-opacity:1"
           d="M 56.142035,296.62142 A 50,50 0 0 0 99.621421,240.85806 50,50 0 0 0 99.25136,238.54141 46,46 0 0 1 59.129291,288.19059 46,46 0 0 1 7.8267835,248.18985 46,46 0 0 1 45.51248,197.25773 50,50 0 0 0 43.85806,197.37868 50,50 0 0 0 0.37867378,253.14204 50,50 0 0 0 56.142035,296.62142 Z"
           id="path815"
           inkscape:connector-curvature="0"
           inkscape:export-xdpi="12.223492"
           inkscape:export-ydpi="12.223492" />
        <path
           style="opacity:1;fill:#5b47a9;fill-opacity:1;fill-rule:evenodd;stroke:none;stroke-width:0.50197619;stroke-linecap:round;stroke-linejoin:round;stroke-miterlimit:4;stroke-dasharray:none;stroke-opacity:1"
           d="m 31.932321,203.55968 a 43.385089,43.385089 0 0 0 -15.345989,59.40572 43.385089,43.385089 0 0 0 1.094814,1.71618 39.914281,39.914281 0 0 1 14.785691,-53.37923 39.914281,39.914281 0 0 1 54.653333,14.118 39.914281,39.914281 0 0 1 -12.40322,53.55881 43.385089,43.385089 0 0 0 1.275099,-0.66776 43.385089,43.385089 0 0 0 15.34599,-59.40573 43.385089,43.385089 0 0 0 -59.405718,-15.34599 z"
           id="path815-9"
           inkscape:connector-curvature="0"
           inkscape:export-xdpi="12.223492"
           inkscape:export-ydpi="12.223492" />
        <path
           style="opacity:1;fill:#705dbb;fill-opacity:1;fill-rule:evenodd;stroke:none;stroke-width:0.4254145;stroke-linecap:round;stroke-linejoin:round;stroke-miterlimit:4;stroke-dasharray:none;stroke-opacity:1"
           d="m 88.832474,246.18156 a 36.012849,37.538927 0 0 0 -37.86498,-35.50354 36.012849,37.538927 0 0 0 -1.683191,0.15497 33.131821,34.535814 0 0 1 33.64194,32.66673 33.131821,34.535814 0 0 1 -31.335206,36.31217 33.131821,34.535814 0 0 1 -34.686965,-30.90974 36.012849,37.538927 0 0 0 0.0031,1.24542 36.012849,37.538927 0 0 0 37.864994,35.50355 36.012849,37.538927 0 0 0 34.060207,-39.46956 z"
           id="path815-9-3"
           inkscape:connector-curvature="0"
           inkscape:export-xdpi="12.223492"
           inkscape:export-ydpi="12.223492" />
        <path
           style="opacity:1;fill:#8979c7;fill-opacity:1;fill-rule:evenodd;stroke:none;stroke-width:0.36114374;stroke-linecap:round;stroke-linejoin:round;stroke-miterlimit:4;stroke-dasharray:none;stroke-opacity:1"
           d="m 37.680004,272.55631 a 31.867623,30.572102 25.125067 0 0 40.936396,-16.30582 31.867623,30.572102 25.125067 0 0 0.487592,-1.34957 29.318213,28.126333 25.125067 0 1 -37.233825,14.08251 29.318213,28.126333 25.125067 0 1 -16.614797,-37.17289 29.318213,28.126333 25.125067 0 1 36.260083,-15.51901 31.867623,30.572102 25.125067 0 0 -0.958361,-0.4465 31.867623,30.572102 25.125067 0 0 -40.936412,16.30583 31.867623,30.572102 25.125067 0 0 18.059343,40.4054 z"
           id="path815-9-3-6"
           inkscape:connector-curvature="0"
           inkscape:export-xdpi="12.223492"
           inkscape:export-ydpi="12.223492" />
        <path
           style="opacity:1;fill:#a295d3;fill-opacity:1;fill-rule:evenodd;stroke:none;stroke-width:0.30291089;stroke-linecap:round;stroke-linejoin:round;stroke-miterlimit:4;stroke-dasharray:none;stroke-opacity:1"
           d="m 39.285996,221.45846 a 25.677483,26.692672 34.794963 0 0 -7.927864,36.67942 25.677483,26.692672 34.794963 0 0 0.692622,0.99248 23.623284,24.557259 34.794979 0 1 7.720704,-33.00197 23.623284,24.557259 34.794979 0 1 33.048942,6.17097 23.623284,24.557259 34.794979 0 1 -6.289329,33.00678 25.677483,26.692672 34.794963 0 0 0.749823,-0.46043 25.677483,26.692672 34.794963 0 0 7.927856,-36.67944 25.677483,26.692672 34.794963 0 0 -35.922731,-6.70776 z"
           id="path815-9-3-6-0"
           inkscape:connector-curvature="0"
           inkscape:export-xdpi="12.223492"
           inkscape:export-ydpi="12.223492" />
        <path
           style="opacity:1;fill:#bbb1df;fill-opacity:1;fill-rule:evenodd;stroke:none;stroke-width:0.23503563;stroke-linecap:round;stroke-linejoin:round;stroke-miterlimit:4;stroke-dasharray:none;stroke-opacity:1"
           d="m 72.51707,246.00102 a 20.739737,19.896602 89.442858 0 0 -21.109614,-19.41086 20.739737,19.896602 89.442858 0 0 -0.92908,0.0947 19.080559,18.304874 89.442858 0 1 18.761329,17.86632 19.080559,18.304874 89.442858 0 1 -17.116367,20.22937 19.080559,18.304874 89.442858 0 1 -19.329221,-16.89006 20.739737,19.896602 89.442858 0 0 0.0085,0.68805 20.739737,19.896602 89.442858 0 0 21.10963,19.41086 20.739737,19.896602 89.442858 0 0 18.604863,-21.98834 z"
           id="path815-9-3-6-0-6"
           inkscape:connector-curvature="0"
           inkscape:export-xdpi="12.223492"
           inkscape:export-ydpi="12.223492" />
        <path
           style="opacity:1;fill:#cdc6e8;fill-opacity:1;fill-rule:evenodd;stroke:none;stroke-width:0.18522185;stroke-linecap:round;stroke-linejoin:round;stroke-miterlimit:4;stroke-dasharray:none;stroke-opacity:1"
           d="m 43.243263,259.05121 a 16.344127,15.679687 28.407533 0 0 21.439666,-7.14697 16.344127,15.679687 28.407533 0 0 0.289309,-0.67671 15.036597,14.425312 28.407533 0 1 -19.478537,6.11732 15.036597,14.425312 28.407533 0 1 -7.415709,-19.52172 15.036597,14.425312 28.407533 0 1 19.022146,-6.88144 16.344127,15.679687 28.407533 0 0 -0.477629,-0.25674 16.344127,15.679687 28.407533 0 0 -21.439671,7.14698 16.344127,15.679687 28.407533 0 0 8.060434,21.2193 z"
           id="path815-9-3-6-0-6-2"
           inkscape:connector-curvature="0"
           inkscape:export-xdpi="12.223492"
           inkscape:export-ydpi="12.223492" />
        <path
           style="opacity:1;fill:#e0dbf1;fill-opacity:1;fill-rule:evenodd;stroke:none;stroke-width:0.14814302;stroke-linecap:round;stroke-linejoin:round;stroke-miterlimit:4;stroke-dasharray:none;stroke-opacity:1"
           d="m 43.069269,235.03128 a 12.540833,13.07226 49.398815 0 0 -0.805885,18.05743 12.540833,13.07226 49.398815 0 0 0.422437,0.40993 11.537566,12.02648 49.398815 0 1 1.012862,-16.29799 11.537566,12.02648 49.398815 0 1 16.702242,0.0557 11.537566,12.02648 49.398815 0 1 -0.311505,16.17612 12.540833,13.07226 49.398815 0 0 0.328564,-0.28311 12.540833,13.07226 49.398815 0 0 0.80587,-18.05744 12.540833,13.07226 49.398815 0 0 -18.154595,-0.0607 z"
           id="path815-9-3-6-0-6-2-6"
           inkscape:connector-curvature="0"
           inkscape:export-xdpi="12.223492"
           inkscape:export-ydpi="12.223492" />
        <path
           style="opacity:1;fill:#ece9f7;fill-opacity:1;fill-rule:evenodd;stroke:none;stroke-width:0.10460758;stroke-linecap:round;stroke-linejoin:round;stroke-miterlimit:4;stroke-dasharray:none;stroke-opacity:1"
           d="m 59.498278,242.04844 a 9.230658,8.8554032 69.368048 0 0 -11.789846,-4.88944 9.230658,8.8554032 69.368048 0 0 -0.373929,0.1815 8.492206,8.1469714 69.368048 0 1 10.572245,4.60251 8.492206,8.1469714 69.368048 0 1 -4.064731,11.07137 8.492206,8.1469714 69.368048 0 1 -10.660492,-4.10765 9.230658,8.8554032 69.368048 0 0 0.108659,0.28633 9.230658,8.8554032 69.368048 0 0 11.78985,4.88943 9.230658,8.8554032 69.368048 0 0 4.418302,-12.03403 z"
           id="path815-9-3-6-0-6-2-6-1"
           inkscape:connector-curvature="0"
           inkscape:export-xdpi="12.223492"
           inkscape:export-ydpi="12.223492" />
      </g>
      <g
         aria-label="Serendeepia Research S.L. C/ Góngora nº 28 28905 Getafe CIF: B88108915"
         style="font-style:normal;font-variant:normal;font-weight:normal;font-stretch:normal;font-size:18.52083397px;line-height:125%;font-family:sans-serif;-inkscape-font-specification:sans-serif;letter-spacing:0px;word-spacing:0px;fill:#5945a6;fill-opacity:1;stroke:none;stroke-width:0.26458332px;stroke-linecap:butt;stroke-linejoin:miter;stroke-opacity:1"
         id="text4642">
        <path
           d="m 62.315026,250.91221 c 3.704167,0 5.500688,-1.85209 5.500688,-4.01902 0,-4.75986 -7.537979,-3.1115 -7.537979,-5.50069 0,-0.81492 0.685271,-1.48167 2.463271,-1.48167 1.148291,0 2.389187,0.33338 3.593041,1.01865 l 0.926042,-2.27807 c -1.203854,-0.75935 -2.870729,-1.14829 -4.500563,-1.14829 -3.685646,0 -5.463646,1.83357 -5.463646,4.03754 0,4.81542 7.53798,3.14855 7.53798,5.57478 0,0.79639 -0.722313,1.38906 -2.500313,1.38906 -1.55575,0 -3.185583,-0.55563 -4.278312,-1.35202 l -1.018646,2.25954 c 1.148291,0.889 3.222625,1.50019 5.278437,1.50019 z"
           style="font-style:normal;font-variant:normal;font-weight:bold;font-stretch:normal;font-family:Montserrat;-inkscape-font-specification:'Montserrat Bold';fill:#5945a6;fill-opacity:1;stroke-width:0.26458332px"
           id="path4802" />
        <path
           d="m 79.44072,245.74489 c 0,-3.2041 -2.259541,-5.16731 -5.185833,-5.16731 -3.037417,0 -5.31548,2.14842 -5.31548,5.13027 0,2.96334 2.241021,5.13027 5.685896,5.13027 1.796521,0 3.185584,-0.55562 4.111626,-1.61131 l -1.53723,-1.66687 c -0.68527,0.64822 -1.444625,0.96308 -2.500312,0.96308 -1.518709,0 -2.574396,-0.75936 -2.852209,-2.00025 h 7.53798 c 0.01852,-0.24077 0.05556,-0.55563 0.05556,-0.77788 z m -5.167312,-2.98185 c 1.296458,0 2.241021,0.81492 2.44475,2.07433 h -4.908021 c 0.203729,-1.27793 1.148291,-2.07433 2.463271,-2.07433 z"
           style="font-style:normal;font-variant:normal;font-weight:bold;font-stretch:normal;font-family:Montserrat;-inkscape-font-specification:'Montserrat Bold';fill:#5945a6;fill-opacity:1;stroke-width:0.26458332px"
           id="path4804" />
        <path
           d="m 84.123887,242.04073 v -1.31498 h -2.759604 v 9.96421 h 2.88925 v -4.7043 c 0,-1.90764 1.055687,-2.77812 2.648479,-2.77812 0.22225,0 0.407458,0.0185 0.648229,0.037 v -2.667 c -1.537229,0 -2.722562,0.50006 -3.426354,1.46315 z"
           style="font-style:normal;font-variant:normal;font-weight:bold;font-stretch:normal;font-family:Montserrat;-inkscape-font-specification:'Montserrat Bold';fill:#5945a6;fill-opacity:1;stroke-width:0.26458332px"
           id="path4806" />
        <path
           d="m 98.938239,245.74489 c 0,-3.2041 -2.259542,-5.16731 -5.185834,-5.16731 -3.037416,0 -5.315479,2.14842 -5.315479,5.13027 0,2.96334 2.241021,5.13027 5.685896,5.13027 1.796521,0 3.185583,-0.55562 4.111625,-1.61131 l -1.537229,-1.66687 c -0.685271,0.64822 -1.444625,0.96308 -2.500313,0.96308 -1.518708,0 -2.574396,-0.75936 -2.852208,-2.00025 h 7.537979 c 0.01852,-0.24077 0.05556,-0.55563 0.05556,-0.77788 z m -5.167313,-2.98185 c 1.296459,0 2.241021,0.81492 2.44475,2.07433 h -4.908021 c 0.203729,-1.27793 1.148292,-2.07433 2.463271,-2.07433 z"
           style="font-style:normal;font-variant:normal;font-weight:bold;font-stretch:normal;font-family:Montserrat;-inkscape-font-specification:'Montserrat Bold';fill:#5945a6;fill-opacity:1;stroke-width:0.26458332px"
           id="path4808" />
        <path
           d="m 106.91811,240.57758 c -1.35202,0 -2.51883,0.46302 -3.2967,1.31498 v -1.16681 h -2.75961 v 9.96421 h 2.88925 v -4.92655 c 0,-1.83356 1.00013,-2.68552 2.38919,-2.68552 1.27794,0 2.01877,0.74084 2.01877,2.35215 v 5.25992 h 2.88925 v -5.70442 c 0,-3.03742 -1.778,-4.40796 -4.13015,-4.40796 z"
           style="font-style:normal;font-variant:normal;font-weight:bold;font-stretch:normal;font-family:Montserrat;-inkscape-font-specification:'Montserrat Bold';fill:#5945a6;fill-opacity:1;stroke-width:0.26458332px"
           id="path4810" />
        <path
           d="m 121.03591,236.9475 v 4.83394 c -0.72231,-0.81492 -1.75948,-1.20386 -2.98186,-1.20386 -2.81516,0 -4.9821,2.00025 -4.9821,5.13027 0,3.13002 2.16694,5.13027 4.9821,5.13027 1.3335,0 2.38919,-0.42598 3.1115,-1.29646 v 1.1483 h 2.75961 V 236.9475 Z m -2.48179,11.51996 c -1.44463,0 -2.55588,-1.03717 -2.55588,-2.75961 0,-1.72244 1.11125,-2.7596 2.55588,-2.7596 1.4261,0 2.53735,1.03716 2.53735,2.7596 0,1.72244 -1.11125,2.75961 -2.53735,2.75961 z"
           style="font-style:normal;font-variant:normal;font-weight:bold;font-stretch:normal;font-family:Montserrat;-inkscape-font-specification:'Montserrat Bold';fill:#5945a6;fill-opacity:1;stroke-width:0.26458332px"
           id="path4812" />
        <path
           d="m 136.34164,245.74489 c 0,-3.2041 -2.25954,-5.16731 -5.18583,-5.16731 -3.03742,0 -5.31548,2.14842 -5.31548,5.13027 0,2.96334 2.24102,5.13027 5.6859,5.13027 1.79652,0 3.18558,-0.55562 4.11162,-1.61131 l -1.53723,-1.66687 c -0.68527,0.64822 -1.44462,0.96308 -2.50031,0.96308 -1.51871,0 -2.57439,-0.75936 -2.85221,-2.00025 h 7.53798 c 0.0185,-0.24077 0.0556,-0.55563 0.0556,-0.77788 z m -5.16731,-2.98185 c 1.29646,0 2.24102,0.81492 2.44475,2.07433 h -4.90802 c 0.20373,-1.27793 1.14829,-2.07433 2.46327,-2.07433 z"
           style="font-style:normal;font-variant:normal;font-weight:bold;font-stretch:normal;font-family:Montserrat;-inkscape-font-specification:'Montserrat Bold';fill:#5945a6;fill-opacity:1;stroke-width:0.26458332px"
           id="path4814" />
        <path
           d="m 148.02568,245.74489 c 0,-3.2041 -2.25954,-5.16731 -5.18583,-5.16731 -3.03742,0 -5.31548,2.14842 -5.31548,5.13027 0,2.96334 2.24102,5.13027 5.68589,5.13027 1.79653,0 3.18559,-0.55562 4.11163,-1.61131 l -1.53723,-1.66687 c -0.68527,0.64822 -1.44462,0.96308 -2.50031,0.96308 -1.51871,0 -2.5744,-0.75936 -2.85221,-2.00025 h 7.53798 c 0.0185,-0.24077 0.0556,-0.55563 0.0556,-0.77788 z m -5.16731,-2.98185 c 1.29646,0 2.24102,0.81492 2.44475,2.07433 h -4.90802 c 0.20373,-1.27793 1.14829,-2.07433 2.46327,-2.07433 z"
           style="font-style:normal;font-variant:normal;font-weight:bold;font-stretch:normal;font-family:Montserrat;-inkscape-font-specification:'Montserrat Bold';fill:#5945a6;fill-opacity:1;stroke-width:0.26458332px"
           id="path4816" />
        <path
           d="m 155.83887,240.57758 c -1.3335,0 -2.40771,0.42598 -3.13002,1.29646 v -1.14829 h -2.7596 V 254.283 h 2.88925 v -4.64873 c 0.74083,0.81492 1.75947,1.20385 3.00037,1.20385 2.79665,0 4.96358,-2.00025 4.96358,-5.13027 0,-3.13002 -2.16693,-5.13027 -4.96358,-5.13027 z m -0.50006,7.88988 c -1.44463,0 -2.53736,-1.03717 -2.53736,-2.75961 0,-1.72244 1.09273,-2.7596 2.53736,-2.7596 1.44462,0 2.53735,1.03716 2.53735,2.7596 0,1.72244 -1.09273,2.75961 -2.53735,2.75961 z"
           style="font-style:normal;font-variant:normal;font-weight:bold;font-stretch:normal;font-family:Montserrat;-inkscape-font-specification:'Montserrat Bold';fill:#5945a6;fill-opacity:1;stroke-width:0.26458332px"
           id="path4818" />
        <path
           d="m 164.16312,239.33669 c 1.07421,0 1.79652,-0.7038 1.79652,-1.66688 0,-0.889 -0.72231,-1.55575 -1.79652,-1.55575 -1.07421,0 -1.79652,0.70379 -1.79652,1.61131 0,0.90752 0.72231,1.61132 1.79652,1.61132 z m -1.44463,11.35327 h 2.88925 v -9.96421 h -2.88925 z"
           style="font-style:normal;font-variant:normal;font-weight:bold;font-stretch:normal;font-family:Montserrat;-inkscape-font-specification:'Montserrat Bold';fill:#5945a6;fill-opacity:1;stroke-width:0.26458332px"
           id="path4820" />
        <path
           d="m 172.30823,240.57758 c -1.59279,0 -3.2041,0.42598 -4.29683,1.20386 l 1.03717,2.01877 c 0.72231,-0.57415 1.81504,-0.92605 2.87072,-0.92605 1.55575,0 2.29659,0.72232 2.29659,1.96321 h -2.29659 c -3.03741,0 -4.27831,1.22238 -4.27831,2.98186 0,1.72243 1.38906,3.01889 3.72269,3.01889 1.46315,0 2.50031,-0.48154 3.03742,-1.38906 v 1.2409 h 2.70404 v -5.6859 c 0,-3.0189 -1.75948,-4.42648 -4.7969,-4.42648 z m -0.22225,8.31586 c -1.01864,0 -1.62983,-0.48155 -1.62983,-1.20386 0,-0.66675 0.42598,-1.16681 1.778,-1.16681 h 1.98173 v 1.01864 c -0.33338,0.90753 -1.16681,1.35203 -2.1299,1.35203 z"
           style="font-style:normal;font-variant:normal;font-weight:bold;font-stretch:normal;font-family:Montserrat;-inkscape-font-specification:'Montserrat Bold';fill:#5945a6;fill-opacity:1;stroke-width:0.26458332px"
           id="path4822" />
        <path
           d="m 196.65184,250.68996 -2.90777,-4.16719 c 1.6854,-0.72231 2.667,-2.14842 2.667,-4.09311 0,-2.90777 -2.16693,-4.70429 -5.63033,-4.70429 h -5.61181 v 12.96459 h 3.00037 v -3.61157 h 2.61144 0.14817 l 2.50031,3.61157 z m -3.27818,-8.2603 c 0,1.40759 -0.92604,2.25955 -2.75961,2.25955 h -2.44475 v -4.51909 h 2.44475 c 1.83357,0 2.75961,0.83344 2.75961,2.25954 z"
           style="font-style:normal;font-variant:normal;font-weight:bold;font-stretch:normal;font-family:Montserrat;-inkscape-font-specification:'Montserrat Bold';fill:#5945a6;fill-opacity:1;stroke-width:0.26458332px"
           id="path4824" />
        <path
           d="m 208.32692,245.74489 c 0,-3.2041 -2.25954,-5.16731 -5.18583,-5.16731 -3.03742,0 -5.31548,2.14842 -5.31548,5.13027 0,2.96334 2.24102,5.13027 5.68589,5.13027 1.79652,0 3.18559,-0.55562 4.11163,-1.61131 l -1.53723,-1.66687 c -0.68527,0.64822 -1.44463,0.96308 -2.50031,0.96308 -1.51871,0 -2.5744,-0.75936 -2.85221,-2.00025 h 7.53798 c 0.0185,-0.24077 0.0556,-0.55563 0.0556,-0.77788 z m -5.16731,-2.98185 c 1.29646,0 2.24102,0.81492 2.44475,2.07433 h -4.90802 c 0.20373,-1.27793 1.14829,-2.07433 2.46327,-2.07433 z"
           style="font-style:normal;font-variant:normal;font-weight:bold;font-stretch:normal;font-family:Montserrat;-inkscape-font-specification:'Montserrat Bold';fill:#5945a6;fill-opacity:1;stroke-width:0.26458332px"
           id="path4826" />
        <path
           d="m 213.60275,250.83812 c 2.98185,0 4.70429,-1.31498 4.70429,-3.16706 0,-3.92642 -6.01927,-2.27806 -6.01927,-3.98198 0,-0.51858 0.55562,-0.92604 1.85208,-0.92604 0.90752,0 1.88913,0.18521 2.87073,0.74083 l 0.96308,-2.05581 c -0.94456,-0.55562 -2.46327,-0.87048 -3.83381,-0.87048 -2.90777,0 -4.61169,1.3335 -4.61169,3.22263 0,3.98198 6.01928,2.3151 6.01928,3.94493 0,0.55563 -0.50007,0.90752 -1.83357,0.90752 -1.22237,0 -2.57439,-0.38893 -3.46339,-0.96308 l -0.96309,2.07433 c 0.92605,0.61119 2.62996,1.07421 4.31536,1.07421 z"
           style="font-style:normal;font-variant:normal;font-weight:bold;font-stretch:normal;font-family:Montserrat;-inkscape-font-specification:'Montserrat Bold';fill:#5945a6;fill-opacity:1;stroke-width:0.26458332px"
           id="path4828" />
        <path
           d="m 229.85014,245.74489 c 0,-3.2041 -2.25954,-5.16731 -5.18583,-5.16731 -3.03742,0 -5.31548,2.14842 -5.31548,5.13027 0,2.96334 2.24102,5.13027 5.6859,5.13027 1.79652,0 3.18558,-0.55562 4.11162,-1.61131 l -1.53723,-1.66687 c -0.68527,0.64822 -1.44462,0.96308 -2.50031,0.96308 -1.51871,0 -2.5744,-0.75936 -2.85221,-2.00025 h 7.53798 c 0.0185,-0.24077 0.0556,-0.55563 0.0556,-0.77788 z m -5.16731,-2.98185 c 1.29646,0 2.24102,0.81492 2.44475,2.07433 h -4.90802 c 0.20373,-1.27793 1.14829,-2.07433 2.46327,-2.07433 z"
           style="font-style:normal;font-variant:normal;font-weight:bold;font-stretch:normal;font-family:Montserrat;-inkscape-font-specification:'Montserrat Bold';fill:#5945a6;fill-opacity:1;stroke-width:0.26458332px"
           id="path4830" />
        <path
           d="m 235.50334,240.57758 c -1.59279,0 -3.20411,0.42598 -4.29683,1.20386 l 1.03716,2.01877 c 0.72231,-0.57415 1.81504,-0.92605 2.87073,-0.92605 1.55575,0 2.29658,0.72232 2.29658,1.96321 h -2.29658 c -3.03742,0 -4.27831,1.22238 -4.27831,2.98186 0,1.72243 1.38906,3.01889 3.72269,3.01889 1.46314,0 2.50031,-0.48154 3.03741,-1.38906 v 1.2409 h 2.70404 v -5.6859 c 0,-3.0189 -1.75947,-4.42648 -4.79689,-4.42648 z m -0.22225,8.31586 c -1.01865,0 -1.62983,-0.48155 -1.62983,-1.20386 0,-0.66675 0.42597,-1.16681 1.778,-1.16681 h 1.98172 v 1.01864 c -0.33337,0.90753 -1.16681,1.35203 -2.12989,1.35203 z"
           style="font-style:normal;font-variant:normal;font-weight:bold;font-stretch:normal;font-family:Montserrat;-inkscape-font-specification:'Montserrat Bold';fill:#5945a6;fill-opacity:1;stroke-width:0.26458332px"
           id="path4832" />
        <path
           d="m 245.67475,242.04073 v -1.31498 h -2.7596 v 9.96421 h 2.88925 v -4.7043 c 0,-1.90764 1.05569,-2.77812 2.64848,-2.77812 0.22225,0 0.40746,0.0185 0.64823,0.037 v -2.667 c -1.53723,0 -2.72256,0.50006 -3.42636,1.46315 z"
           style="font-style:normal;font-variant:normal;font-weight:bold;font-stretch:normal;font-family:Montserrat;-inkscape-font-specification:'Montserrat Bold';fill:#5945a6;fill-opacity:1;stroke-width:0.26458332px"
           id="path4834" />
        <path
           d="m 255.54404,250.83812 c 2.09286,0 3.74121,-0.92604 4.46352,-2.51883 l -2.24102,-1.22238 c -0.5371,0.96309 -1.3335,1.37055 -2.24102,1.37055 -1.46314,0 -2.61144,-1.01865 -2.61144,-2.75961 0,-1.74096 1.1483,-2.7596 2.61144,-2.7596 0.90752,0 1.70392,0.42598 2.24102,1.37054 l 2.24102,-1.20385 c -0.72231,-1.62984 -2.37066,-2.53736 -4.46352,-2.53736 -3.24114,0 -5.55625,2.1299 -5.55625,5.13027 0,3.00038 2.31511,5.13027 5.55625,5.13027 z"
           style="font-style:normal;font-variant:normal;font-weight:bold;font-stretch:normal;font-family:Montserrat;-inkscape-font-specification:'Montserrat Bold';fill:#5945a6;fill-opacity:1;stroke-width:0.26458332px"
           id="path4836" />
        <path
           d="m 267.67317,240.57758 c -1.27794,0 -2.38919,0.40746 -3.16706,1.18533 v -4.81541 h -2.88925 v 13.74246 h 2.88925 v -4.92655 c 0,-1.83356 1.00012,-2.68552 2.38918,-2.68552 1.27794,0 2.01877,0.74084 2.01877,2.35215 v 5.25992 h 2.88925 v -5.70442 c 0,-3.03742 -1.778,-4.40796 -4.13014,-4.40796 z"
           style="font-style:normal;font-variant:normal;font-weight:bold;font-stretch:normal;font-family:Montserrat;-inkscape-font-specification:'Montserrat Bold';fill:#5945a6;fill-opacity:1;stroke-width:0.26458332px"
           id="path4838" />
        <path
           d="m 284.13094,250.91221 c 3.70417,0 5.50069,-1.85209 5.50069,-4.01902 0,-4.75986 -7.53798,-3.1115 -7.53798,-5.50069 0,-0.81492 0.68527,-1.48167 2.46327,-1.48167 1.1483,0 2.38919,0.33338 3.59305,1.01865 l 0.92604,-2.27807 c -1.20386,-0.75935 -2.87073,-1.14829 -4.50057,-1.14829 -3.68564,0 -5.46364,1.83357 -5.46364,4.03754 0,4.81542 7.53798,3.14855 7.53798,5.57478 0,0.79639 -0.72231,1.38906 -2.50031,1.38906 -1.55575,0 -3.18559,-0.55563 -4.27832,-1.35202 l -1.01864,2.25954 c 1.14829,0.889 3.22262,1.50019 5.27843,1.50019 z"
           style="font-style:normal;font-variant:normal;font-weight:bold;font-stretch:normal;font-family:Montserrat;-inkscape-font-specification:'Montserrat Bold';fill:#5945a6;fill-opacity:1;stroke-width:0.26458332px"
           id="path4840" />
        <path
           d="m 292.95063,250.83812 c 1.00012,0 1.79652,-0.75935 1.79652,-1.81504 0,-1.07421 -0.7964,-1.778 -1.79652,-1.778 -1.00013,0 -1.79652,0.70379 -1.79652,1.778 0,1.05569 0.79639,1.81504 1.79652,1.81504 z"
           style="font-style:normal;font-variant:normal;font-weight:bold;font-stretch:normal;font-family:Montserrat;-inkscape-font-specification:'Montserrat Bold';fill:#5945a6;fill-opacity:1;stroke-width:0.26458332px"
           id="path4842" />
        <path
           d="m 296.90889,250.68996 h 9.50119 v -2.44475 h -6.50082 v -10.51984 h -3.00037 z"
           style="font-style:normal;font-variant:normal;font-weight:bold;font-stretch:normal;font-family:Montserrat;-inkscape-font-specification:'Montserrat Bold';fill:#5945a6;fill-opacity:1;stroke-width:0.26458332px"
           id="path4844" />
        <path
           d="m 309.5181,250.83812 c 1.00013,0 1.79652,-0.75935 1.79652,-1.81504 0,-1.07421 -0.79639,-1.778 -1.79652,-1.778 -1.00012,0 -1.79652,0.70379 -1.79652,1.778 0,1.05569 0.7964,1.81504 1.79652,1.81504 z"
           style="font-style:normal;font-variant:normal;font-weight:bold;font-stretch:normal;font-family:Montserrat;-inkscape-font-specification:'Montserrat Bold';fill:#5945a6;fill-opacity:1;stroke-width:0.26458332px"
           id="path4846" />
        <path
           d="m 63.996877,261.82804 q -2.179453,0 -3.445526,1.45598 -1.257029,1.44694 -1.257029,3.97004 0,2.59545 1.211812,4.01526 1.220856,1.41077 3.472657,1.41077 1.383636,0 3.156138,-0.49739 v 1.34746 q -1.374593,0.51548 -3.391266,0.51548 -2.921011,0 -4.512645,-1.7725 -1.582591,-1.77251 -1.582591,-5.03717 0,-2.0438 0.759644,-3.58117 0.768687,-1.53738 2.206584,-2.36937 1.44694,-0.83199 3.400309,-0.83199 2.079977,0 3.635437,0.75965 l -0.651123,1.32033 q -1.5012,-0.70538 -3.002401,-0.70538 z"
           style="font-style:normal;font-variant:normal;font-weight:normal;font-stretch:normal;font-family:'Open Sans';-inkscape-font-specification:'Open Sans';fill:#5945a6;fill-opacity:1;stroke-width:0.26458332px"
           id="path4848" />
        <path
           d="m 74.812755,260.64335 -4.92864,13.22142 h -1.5012 l 4.92864,-13.22142 z"
           style="font-style:normal;font-variant:normal;font-weight:normal;font-stretch:normal;font-family:'Open Sans';-inkscape-font-specification:'Open Sans';fill:#5945a6;fill-opacity:1;stroke-width:0.26458332px"
           id="path4850" />
        <path
           d="m 87.446351,266.93754 h 4.494558 v 6.42984 q -1.049032,0.33461 -2.134237,0.50643 -1.085205,0.17183 -2.514058,0.17183 -3.002401,0 -4.675426,-1.78155 -1.673024,-1.79059 -1.673024,-5.01003 0,-2.06189 0.822947,-3.60831 0.83199,-1.55546 2.387451,-2.36936 1.555461,-0.82295 3.644481,-0.82295 2.11615,0 3.942912,0.77773 l -0.596863,1.35651 q -1.790589,-0.75964 -3.445526,-0.75964 -2.414582,0 -3.771088,1.43789 -1.356507,1.4379 -1.356507,3.98813 0,2.67684 1.302246,4.06048 1.31129,1.38363 3.843435,1.38363 1.374593,0 2.685883,-0.31651 v -4.06952 h -2.957184 z"
           style="font-style:normal;font-variant:normal;font-weight:normal;font-stretch:normal;font-family:'Open Sans';-inkscape-font-specification:'Open Sans';fill:#5945a6;fill-opacity:1;stroke-width:0.26458332px"
           id="path4852" />
        <path
           d="m 103.45313,268.89996 q 0,2.42362 -1.22086,3.78917 -1.22086,1.35651 -3.37318,1.35651 -1.329376,0 -2.360321,-0.624 -1.030945,-0.62399 -1.591634,-1.79058 -0.560689,-1.1666 -0.560689,-2.7311 0,-2.42363 1.211812,-3.77109 1.211813,-1.35651 3.364136,-1.35651 2.079976,0 3.300836,1.38364 1.2299,1.38363 1.2299,3.74396 z m -7.551224,0 q 0,1.8991 0.759644,2.89388 0.759644,0.99477 2.233714,0.99477 1.474066,0 2.233716,-0.98573 0.76868,-0.99477 0.76868,-2.90292 0,-1.89007 -0.76868,-2.86675 -0.75965,-0.98573 -2.251803,-0.98573 -1.47407,0 -2.22467,0.96764 -0.750601,0.96764 -0.750601,2.88484 z m 1.736329,-6.4841 q 0.434082,-0.56069 0.931467,-1.35651 0.506429,-0.79582 0.795817,-1.38364 h 1.826761 v 0.18991 q -0.39791,0.58782 -1.18468,1.44694 -0.786775,0.85912 -1.365551,1.32938 h -1.003814 z"
           style="font-style:normal;font-variant:normal;font-weight:normal;font-stretch:normal;font-family:'Open Sans';-inkscape-font-specification:'Open Sans';fill:#5945a6;fill-opacity:1;stroke-width:0.26458332px"
           id="path4854" />
        <path
           d="m 112.85824,273.86477 v -6.41175 q 0,-1.21182 -0.55165,-1.80868 -0.55165,-0.59686 -1.72728,-0.59686 -1.55547,0 -2.27894,0.84103 -0.72347,0.84104 -0.72347,2.77632 v 5.19994 h -1.5012 v -9.91154 h 1.22086 l 0.24417,1.35651 h 0.0724 q 0.46121,-0.73252 1.2932,-1.13043 0.83199,-0.40695 1.85389,-0.40695 1.79059,0 2.69493,0.86817 0.90434,0.85912 0.90434,2.75823 v 6.46601 z"
           style="font-style:normal;font-variant:normal;font-weight:normal;font-stretch:normal;font-family:'Open Sans';-inkscape-font-specification:'Open Sans';fill:#5945a6;fill-opacity:1;stroke-width:0.26458332px"
           id="path4856" />
        <path
           d="m 125.54609,263.95323 v 0.94955 l -1.8358,0.21704 q 0.25321,0.31652 0.45217,0.832 0.19895,0.50642 0.19895,1.1485 0,1.45599 -0.99477,2.32415 -0.99477,0.86817 -2.7311,0.86817 -0.44312,0 -0.83199,-0.0724 -0.9586,0.50643 -0.9586,1.27511 0,0.40696 0.33461,0.60591 0.3346,0.18991 1.14851,0.18991 h 1.75441 q 1.60972,0 2.46884,0.67826 0.86817,0.67825 0.86817,1.97145 0,1.6459 -1.32034,2.50502 -1.32033,0.86816 -3.85247,0.86816 -1.94433,0 -3.0024,-0.72347 -1.04904,-0.72347 -1.04904,-2.0438 0,-0.90434 0.57878,-1.56451 0.57878,-0.66016 1.62781,-0.89529 -0.37982,-0.17183 -0.64208,-0.53356 -0.25322,-0.36174 -0.25322,-0.84103 0,-0.54261 0.28939,-0.94956 0.28939,-0.40695 0.91338,-0.78677 -0.76868,-0.31652 -1.25703,-1.07616 -0.4793,-0.75965 -0.4793,-1.73633 0,-1.62781 0.97669,-2.50502 0.97668,-0.88625 2.76727,-0.88625 0.77773,0 1.40173,0.18087 z m -7.90391,11.57552 q 0,0.80486 0.67826,1.22086 0.67825,0.41599 1.94432,0.41599 1.89007,0 2.79441,-0.56973 0.91338,-0.56069 0.91338,-1.52833 0,-0.80486 -0.49739,-1.12138 -0.49738,-0.30748 -1.87198,-0.30748 h -1.79963 q -1.0219,0 -1.59163,0.48835 -0.56974,0.48834 -0.56974,1.40172 z m 0.81391,-8.4013 q 0,1.03999 0.58782,1.57355 0.58782,0.53356 1.63685,0.53356 2.19754,0 2.19754,-2.13424 0,-2.23371 -2.22467,-2.23371 -1.05808,0 -1.62781,0.56973 -0.56973,0.56974 -0.56973,1.69111 z"
           style="font-style:normal;font-variant:normal;font-weight:normal;font-stretch:normal;font-family:'Open Sans';-inkscape-font-specification:'Open Sans';fill:#5945a6;fill-opacity:1;stroke-width:0.26458332px"
           id="path4858" />
        <path
           d="m 136.15398,268.89996 q 0,2.42362 -1.22086,3.78917 -1.22085,1.35651 -3.37318,1.35651 -1.32937,0 -2.36032,-0.624 -1.03094,-0.62399 -1.59163,-1.79058 -0.56069,-1.1666 -0.56069,-2.7311 0,-2.42363 1.21181,-3.77109 1.21181,-1.35651 3.36414,-1.35651 2.07997,0 3.30083,1.38364 1.2299,1.38363 1.2299,3.74396 z m -7.55122,0 q 0,1.8991 0.75964,2.89388 0.75965,0.99477 2.23372,0.99477 1.47407,0 2.23371,-0.98573 0.76869,-0.99477 0.76869,-2.90292 0,-1.89007 -0.76869,-2.86675 -0.75964,-0.98573 -2.2518,-0.98573 -1.47407,0 -2.22467,0.96764 -0.7506,0.96764 -0.7506,2.88484 z"
           style="font-style:normal;font-variant:normal;font-weight:normal;font-stretch:normal;font-family:'Open Sans';-inkscape-font-specification:'Open Sans';fill:#5945a6;fill-opacity:1;stroke-width:0.26458332px"
           id="path4860" />
        <path
           d="m 143.29824,263.77236 q 0.66017,0 1.18469,0.10852 l -0.208,1.39268 q -0.61495,-0.13565 -1.08521,-0.13565 -1.20277,0 -2.06189,0.97669 -0.85007,0.97668 -0.85007,2.43266 v 5.31751 h -1.5012 v -9.91154 h 1.23894 l 0.17182,1.8358 h 0.0724 q 0.55165,-0.96764 1.32938,-1.49215 0.77773,-0.52452 1.70919,-0.52452 z"
           style="font-style:normal;font-variant:normal;font-weight:normal;font-stretch:normal;font-family:'Open Sans';-inkscape-font-specification:'Open Sans';fill:#5945a6;fill-opacity:1;stroke-width:0.26458332px"
           id="path4862" />
        <path
           d="m 152.06579,273.86477 -0.29843,-1.41077 h -0.0724 q -0.74155,0.93147 -1.48311,1.26608 -0.73251,0.32556 -1.83581,0.32556 -1.47407,0 -2.3151,-0.75965 -0.83199,-0.75964 -0.83199,-2.16136 0,-3.0024 4.80203,-3.1471 l 1.68207,-0.0543 v -0.61495 q 0,-1.16659 -0.50643,-1.71824 -0.49739,-0.56069 -1.60068,-0.56069 -1.23894,0 -2.80344,0.75964 l -0.46122,-1.1485 q 0.73252,-0.39791 1.60068,-0.624 0.87721,-0.22608 1.75442,-0.22608 1.7725,0 2.62258,0.78677 0.85912,0.78678 0.85912,2.5231 v 6.76445 z m -3.39126,-1.05808 q 1.40172,0 2.19754,-0.76868 0.80486,-0.76869 0.80486,-2.15233 v -0.89529 l -1.5012,0.0633 q -1.79059,0.0633 -2.58641,0.56069 -0.78677,0.48834 -0.78677,1.52833 0,0.81391 0.48834,1.23895 0.49738,0.42503 1.38364,0.42503 z"
           style="font-style:normal;font-variant:normal;font-weight:normal;font-stretch:normal;font-family:'Open Sans';-inkscape-font-specification:'Open Sans';fill:#5945a6;fill-opacity:1;stroke-width:0.26458332px"
           id="path4864" />
        <path
           d="m 167.87813,273.86477 v -6.41175 q 0,-1.21182 -0.55164,-1.80868 -0.55165,-0.59686 -1.72729,-0.59686 -1.55546,0 -2.27893,0.84103 -0.72347,0.84104 -0.72347,2.77632 v 5.19994 h -1.5012 v -9.91154 h 1.22086 l 0.24417,1.35651 h 0.0724 q 0.46121,-0.73252 1.2932,-1.13043 0.83199,-0.40695 1.85389,-0.40695 1.79059,0 2.69493,0.86817 0.90433,0.85912 0.90433,2.75823 v 6.46601 z"
           style="font-style:normal;font-variant:normal;font-weight:normal;font-stretch:normal;font-family:'Open Sans';-inkscape-font-specification:'Open Sans';fill:#5945a6;fill-opacity:1;stroke-width:0.26458332px"
           id="path4866" />
        <path
           d="m 177.2109,263.60054 q 0,1.48311 -0.77773,2.3151 -0.76869,0.82295 -2.12519,0.82295 -1.32034,0 -2.08902,-0.84103 -0.75965,-0.84104 -0.75965,-2.29702 0,-1.47407 0.75965,-2.28798 0.75964,-0.82294 2.12519,-0.82294 1.37459,0 2.11615,0.82294 0.7506,0.82295 0.7506,2.28798 z m -4.6483,0 q 0,1.10329 0.40696,1.65494 0.41599,0.55164 1.3565,0.55164 0.94956,0 1.36555,-0.55164 0.416,-0.55165 0.416,-1.65494 0,-1.11234 -0.416,-1.6459 -0.41599,-0.53356 -1.36555,-0.53356 -0.93147,0 -1.34746,0.53356 -0.416,0.53356 -0.416,1.6459 z"
           style="font-style:normal;font-variant:normal;font-weight:normal;font-stretch:normal;font-family:'Open Sans';-inkscape-font-specification:'Open Sans';fill:#5945a6;fill-opacity:1;stroke-width:0.26458332px"
           id="path4868" />
        <path
           d="m 192.21386,273.86477 h -8.69068 v -1.2932 l 3.4817,-3.49979 q 1.59163,-1.60972 2.09806,-2.29702 0.50643,-0.68729 0.75965,-1.33842 0.25321,-0.65112 0.25321,-1.40172 0,-1.05808 -0.64208,-1.67302 -0.64208,-0.624 -1.78154,-0.624 -0.82295,0 -1.56451,0.2713 -0.73251,0.2713 -1.63685,0.98573 l -0.79582,-1.0219 q 1.82677,-1.51929 3.97909,-1.51929 1.86294,0 2.92101,0.9586 1.05808,0.94956 1.05808,2.55928 0,1.25703 -0.70539,2.48692 -0.70538,1.2299 -2.64066,3.11093 l -2.89388,2.83057 v 0.0723 h 6.80061 z"
           style="font-style:normal;font-variant:normal;font-weight:normal;font-stretch:normal;font-family:'Open Sans';-inkscape-font-specification:'Open Sans';fill:#5945a6;fill-opacity:1;stroke-width:0.26458332px"
           id="path4870" />
        <path
           d="m 198.49901,260.45344 q 1.80868,0 2.86675,0.84104 1.05808,0.84103 1.05808,2.32414 0,0.97669 -0.60591,1.78155 -0.6059,0.80486 -1.93528,1.46503 1.60972,0.76868 2.28797,1.61876 0.67826,0.84103 0.67826,1.95337 0,1.64589 -1.14851,2.63162 -1.14851,0.97669 -3.1471,0.97669 -2.11615,0 -3.25561,-0.92243 -1.13947,-0.93147 -1.13947,-2.63162 0,-2.26989 2.76728,-3.53596 -1.24799,-0.70538 -1.79059,-1.51929 -0.5426,-0.82294 -0.5426,-1.8358 0,-1.4379 1.05807,-2.28798 1.06712,-0.85912 2.84866,-0.85912 z m -2.8577,10.07432 q 0,1.08521 0.7506,1.69111 0.75964,0.60591 2.12519,0.60591 1.34746,0 2.09806,-0.63304 0.7506,-0.63303 0.7506,-1.73632 0,-0.87721 -0.70538,-1.55546 -0.70538,-0.6873 -2.4598,-1.32938 -1.34746,0.57878 -1.95337,1.28416 -0.6059,0.69634 -0.6059,1.67302 z m 2.83962,-8.85346 q -1.13043,0 -1.7725,0.5426 -0.64208,0.5426 -0.64208,1.44694 0,0.83199 0.53355,1.42885 0.53356,0.59687 1.97146,1.19373 1.2932,-0.5426 1.82676,-1.1666 0.5426,-0.62399 0.5426,-1.45598 0,-0.91338 -0.66016,-1.44694 -0.65112,-0.5426 -1.79963,-0.5426 z"
           style="font-style:normal;font-variant:normal;font-weight:normal;font-stretch:normal;font-family:'Open Sans';-inkscape-font-specification:'Open Sans';fill:#5945a6;fill-opacity:1;stroke-width:0.26458332px"
           id="path4872" />
        <path
           d="m 66.113027,297.03958 h -8.690684 v -1.2932 l 3.4817,-3.49979 q 1.591634,-1.60972 2.098063,-2.29701 0.506429,-0.6873 0.759644,-1.33842 0.253214,-0.65113 0.253214,-1.40173 0,-1.05807 -0.64208,-1.67302 -0.642079,-0.624 -1.781545,-0.624 -0.822947,0 -1.564504,0.27131 -0.732513,0.2713 -1.636851,0.98572 l -0.795817,-1.0219 q 1.826762,-1.51928 3.979086,-1.51928 1.862935,0 2.92101,0.95859 1.058075,0.94956 1.058075,2.55928 0,1.25703 -0.705383,2.48693 -0.705384,1.2299 -2.640666,3.11092 l -2.89388,2.83057 v 0.0724 h 6.800618 z"
           style="font-style:normal;font-variant:normal;font-weight:normal;font-stretch:normal;font-family:'Open Sans';-inkscape-font-specification:'Open Sans';fill:#5945a6;fill-opacity:1;stroke-width:0.26458332px"
           id="path4874" />
        <path
           d="m 72.398174,283.62826 q 1.808675,0 2.86675,0.84103 1.058075,0.84103 1.058075,2.32415 0,0.97668 -0.605906,1.78154 -0.605906,0.80486 -1.935283,1.46503 1.609721,0.76869 2.287974,1.61876 0.678254,0.84104 0.678254,1.95337 0,1.6459 -1.148509,2.63162 -1.148509,0.97669 -3.147095,0.97669 -2.11615,0 -3.255615,-0.92242 -1.139466,-0.93147 -1.139466,-2.63163 0,-2.26988 2.767273,-3.53596 -1.247985,-0.70538 -1.790588,-1.51928 -0.542603,-0.82295 -0.542603,-1.83581 0,-1.4379 1.058075,-2.28797 1.067119,-0.85912 2.848664,-0.85912 z m -2.857707,10.07432 q 0,1.0852 0.7506,1.69111 0.759644,0.6059 2.125194,0.6059 1.347463,0 2.098063,-0.63303 0.7506,-0.63304 0.7506,-1.73633 0,-0.87721 -0.705383,-1.55546 -0.705384,-0.6873 -2.459799,-1.32938 -1.347463,0.57878 -1.953369,1.28416 -0.605906,0.69634 -0.605906,1.67303 z m 2.83962,-8.85347 q -1.130422,0 -1.772502,0.5426 -0.642079,0.54261 -0.642079,1.44694 0,0.83199 0.533559,1.42886 0.533559,0.59686 1.971456,1.19372 1.293203,-0.5426 1.826762,-1.16659 0.542602,-0.624 0.542602,-1.45599 0,-0.91338 -0.660166,-1.44694 -0.651123,-0.5426 -1.799632,-0.5426 z"
           style="font-style:normal;font-variant:normal;font-weight:normal;font-stretch:normal;font-family:'Open Sans';-inkscape-font-specification:'Open Sans';fill:#5945a6;fill-opacity:1;stroke-width:0.26458332px"
           id="path4876" />
        <path
           d="m 87.310701,289.46123 q 0,7.75922 -6.004802,7.75922 -1.049031,0 -1.663981,-0.18087 v -1.2932 q 0.72347,0.23513 1.645895,0.23513 2.17041,0 3.273702,-1.33842 1.112335,-1.34747 1.211812,-4.12378 h -0.10852 q -0.497386,0.7506 -1.320333,1.14851 -0.822947,0.38886 -1.853892,0.38886 -1.754415,0 -2.78536,-1.04903 -1.030945,-1.04903 -1.030945,-2.93005 0,-2.06189 1.148509,-3.25562 1.157552,-1.19372 3.038574,-1.19372 1.347463,0 2.351278,0.69634 1.012858,0.68729 1.555461,2.01667 0.542602,1.32033 0.542602,3.11996 z m -4.449341,-4.54882 q -1.293203,0 -1.998586,0.832 -0.705383,0.83199 -0.705383,2.3151 0,1.30225 0.651123,2.05285 0.651123,0.74155 1.980499,0.74155 0.822947,0 1.510244,-0.3346 0.69634,-0.33461 1.094248,-0.91338 0.397909,-0.57878 0.397909,-1.21182 0,-0.94955 -0.370779,-1.75441 -0.370778,-0.80486 -1.039988,-1.26607 -0.660166,-0.46122 -1.519287,-0.46122 z"
           style="font-style:normal;font-variant:normal;font-weight:normal;font-stretch:normal;font-family:'Open Sans';-inkscape-font-specification:'Open Sans';fill:#5945a6;fill-opacity:1;stroke-width:0.26458332px"
           id="path4878" />
        <path
           d="m 97.981885,290.41079 q 0,3.42744 -1.085205,5.11855 -1.076162,1.69111 -3.300832,1.69111 -2.134237,0 -3.246572,-1.72729 -1.112336,-1.73632 -1.112336,-5.08237 0,-3.45457 1.076162,-5.1276 1.076162,-1.67302 3.282746,-1.67302 2.152323,0 3.264658,1.74537 1.121379,1.74537 1.121379,5.05525 z m -7.225657,0 q 0,2.88483 0.678253,4.20517 0.678253,1.31129 2.161367,1.31129 1.5012,0 2.17041,-1.32938 0.678253,-1.33842 0.678253,-4.18708 0,-2.84867 -0.678253,-4.169 -0.66921,-1.32938 -2.17041,-1.32938 -1.483114,0 -2.161367,1.31129 -0.678253,1.30225 -0.678253,4.18709 z"
           style="font-style:normal;font-variant:normal;font-weight:normal;font-stretch:normal;font-family:'Open Sans';-inkscape-font-specification:'Open Sans';fill:#5945a6;fill-opacity:1;stroke-width:0.26458332px"
           id="path4880" />
        <path
           d="m 103.95051,288.96385 q 2.08902,0 3.28275,1.03999 1.20277,1.03094 1.20277,2.83057 0,2.05285 -1.31129,3.21944 -1.30225,1.1666 -3.59927,1.1666 -2.23371,0 -3.40935,-0.71443 v -1.44694 q 0.63304,0.40695 1.57355,0.64208 0.94051,0.22609 1.85389,0.22609 1.59164,0 2.46884,-0.7506 0.88625,-0.7506 0.88625,-2.17041 0,-2.76728 -3.39126,-2.76728 -0.85912,0 -2.29702,0.26226 l -0.77773,-0.49738 0.49739,-6.18567 h 6.57453 v 1.38363 h -5.29037 l -0.33461,3.97004 q 1.03999,-0.20799 2.07093,-0.20799 z"
           style="font-style:normal;font-variant:normal;font-weight:normal;font-stretch:normal;font-family:'Open Sans';-inkscape-font-specification:'Open Sans';fill:#5945a6;fill-opacity:1;stroke-width:0.26458332px"
           id="path4882" />
        <path
           d="m 121.95587,290.11236 h 4.49456 v 6.42984 q -1.04903,0.3346 -2.13423,0.50643 -1.08521,0.17182 -2.51406,0.17182 -3.0024,0 -4.67543,-1.78155 -1.67302,-1.79058 -1.67302,-5.01003 0,-2.06189 0.82294,-3.6083 0.83199,-1.55546 2.38746,-2.36937 1.55546,-0.82294 3.64448,-0.82294 2.11615,0 3.94291,0.77773 l -0.59686,1.3565 q -1.79059,-0.75964 -3.44553,-0.75964 -2.41458,0 -3.77109,1.4379 -1.35651,1.43789 -1.35651,3.98812 0,2.67684 1.30225,4.06048 1.31129,1.38364 3.84344,1.38364 1.37459,0 2.68588,-0.31652 v -4.06952 h -2.95719 z"
           style="font-style:normal;font-variant:normal;font-weight:normal;font-stretch:normal;font-family:'Open Sans';-inkscape-font-specification:'Open Sans';fill:#5945a6;fill-opacity:1;stroke-width:0.26458332px"
           id="path4884" />
        <path
           d="m 133.5947,297.22045 q -2.19754,0 -3.47266,-1.33842 -1.26607,-1.33842 -1.26607,-3.71683 0,-2.39649 1.17564,-3.80726 1.18468,-1.41077 3.17422,-1.41077 1.86294,0 2.94814,1.2299 1.08521,1.22086 1.08521,3.22849 v 0.94955 h -6.82775 q 0.0452,1.74537 0.87721,2.64971 0.84103,0.90434 2.36032,0.90434 1.60067,0 3.16518,-0.66921 v 1.33842 q -0.79582,0.34365 -1.51025,0.48834 -0.70538,0.15374 -1.70919,0.15374 z m -0.40696,-9.01625 q -1.19372,0 -1.90815,0.77773 -0.70538,0.77773 -0.83199,2.15233 h 5.18186 q 0,-1.41981 -0.63304,-2.17041 -0.63304,-0.75965 -1.80868,-0.75965 z"
           style="font-style:normal;font-variant:normal;font-weight:normal;font-stretch:normal;font-family:'Open Sans';-inkscape-font-specification:'Open Sans';fill:#5945a6;fill-opacity:1;stroke-width:0.26458332px"
           id="path4886" />
        <path
           d="m 142.99077,295.98151 q 0.3979,0 0.76868,-0.0543 0.37078,-0.0633 0.58782,-0.12661 v 1.14851 q -0.24417,0.11756 -0.72347,0.18991 -0.47025,0.0814 -0.85007,0.0814 -2.8758,0 -2.8758,-3.02953 v -5.89628 h -1.41981 v -0.72347 l 1.41981,-0.624 0.63304,-2.11615 h 0.86816 v 2.29702 h 2.8758 v 1.1666 h -2.8758 v 5.83297 q 0,0.8953 0.42504,1.3746 0.42504,0.4793 1.1666,0.4793 z"
           style="font-style:normal;font-variant:normal;font-weight:normal;font-stretch:normal;font-family:'Open Sans';-inkscape-font-specification:'Open Sans';fill:#5945a6;fill-opacity:1;stroke-width:0.26458332px"
           id="path4888" />
        <path
           d="m 152.43206,297.03958 -0.29844,-1.41076 h -0.0723 q -0.74156,0.93146 -1.48312,1.26607 -0.73251,0.32556 -1.8358,0.32556 -1.47407,0 -2.31511,-0.75964 -0.83199,-0.75965 -0.83199,-2.16137 0,-3.0024 4.80204,-3.1471 l 1.68206,-0.0543 v -0.61495 q 0,-1.16659 -0.50643,-1.71824 -0.49738,-0.56069 -1.60067,-0.56069 -1.23895,0 -2.80345,0.75965 l -0.46121,-1.14851 q 0.73251,-0.39791 1.60068,-0.62399 0.8772,-0.22609 1.75441,-0.22609 1.7725,0 2.62258,0.78677 0.85912,0.78678 0.85912,2.52311 v 6.76444 z m -3.39127,-1.05807 q 1.40172,0 2.19754,-0.76869 0.80486,-0.76869 0.80486,-2.15232 v -0.8953 l -1.5012,0.0633 q -1.79059,0.0633 -2.58641,0.56069 -0.78677,0.48834 -0.78677,1.52833 0,0.8139 0.48834,1.23894 0.49739,0.42504 1.38364,0.42504 z"
           style="font-style:normal;font-variant:normal;font-weight:normal;font-stretch:normal;font-family:'Open Sans';-inkscape-font-specification:'Open Sans';fill:#5945a6;fill-opacity:1;stroke-width:0.26458332px"
           id="path4890" />
        <path
           d="m 161.1137,288.29464 h -2.52311 v 8.74494 h -1.5012 v -8.74494 h -1.7725 v -0.67826 l 1.7725,-0.5426 v -0.55164 q 0,-3.65353 3.19232,-3.65353 0.78677,0 1.84484,0.31652 l -0.38886,1.20277 q -0.86817,-0.28035 -1.48311,-0.28035 -0.85008,0 -1.25703,0.56974 -0.40696,0.56069 -0.40696,1.80867 v 0.64208 h 2.52311 z"
           style="font-style:normal;font-variant:normal;font-weight:normal;font-stretch:normal;font-family:'Open Sans';-inkscape-font-specification:'Open Sans';fill:#5945a6;fill-opacity:1;stroke-width:0.26458332px"
           id="path4892" />
        <path
           d="m 167.12754,297.22045 q -2.19754,0 -3.47266,-1.33842 -1.26607,-1.33842 -1.26607,-3.71683 0,-2.39649 1.17564,-3.80726 1.18468,-1.41077 3.17423,-1.41077 1.86293,0 2.94814,1.2299 1.0852,1.22086 1.0852,3.22849 v 0.94955 h -6.82775 q 0.0452,1.74537 0.87721,2.64971 0.84103,0.90434 2.36032,0.90434 1.60068,0 3.16518,-0.66921 v 1.33842 q -0.79581,0.34365 -1.51024,0.48834 -0.70538,0.15374 -1.7092,0.15374 z m -0.40695,-9.01625 q -1.19373,0 -1.90815,0.77773 -0.70539,0.77773 -0.83199,2.15233 h 5.18185 q 0,-1.41981 -0.63304,-2.17041 -0.63303,-0.75965 -1.80867,-0.75965 z"
           style="font-style:normal;font-variant:normal;font-weight:normal;font-stretch:normal;font-family:'Open Sans';-inkscape-font-specification:'Open Sans';fill:#5945a6;fill-opacity:1;stroke-width:0.26458332px"
           id="path4894" />
        <path
           d="m 63.996877,308.17766 q -2.179453,0 -3.445526,1.45598 -1.257029,1.44694 -1.257029,3.97005 0,2.59545 1.211812,4.01526 1.220856,1.41076 3.472657,1.41076 1.383636,0 3.156138,-0.49738 v 1.34746 q -1.374593,0.51547 -3.391266,0.51547 -2.921011,0 -4.512645,-1.7725 -1.582591,-1.7725 -1.582591,-5.03716 0,-2.0438 0.759644,-3.58118 0.768687,-1.53737 2.206584,-2.36936 1.44694,-0.83199 3.400309,-0.83199 2.079977,0 3.635437,0.75964 l -0.651123,1.32033 q -1.5012,-0.70538 -3.002401,-0.70538 z"
           style="font-style:normal;font-variant:normal;font-weight:normal;font-stretch:normal;font-family:'Open Sans';-inkscape-font-specification:'Open Sans';fill:#5945a6;fill-opacity:1;stroke-width:0.26458332px"
           id="path4896" />
        <path
           d="m 70.019766,320.21439 v -13.22141 h 1.537374 v 13.22141 z"
           style="font-style:normal;font-variant:normal;font-weight:normal;font-stretch:normal;font-family:'Open Sans';-inkscape-font-specification:'Open Sans';fill:#5945a6;fill-opacity:1;stroke-width:0.26458332px"
           id="path4898" />
        <path
           d="m 76.729951,320.21439 h -1.537374 v -13.22141 h 7.370352 v 1.36555 h -5.832978 v 4.8382 h 5.480286 v 1.36555 h -5.480286 z"
           style="font-style:normal;font-variant:normal;font-weight:normal;font-stretch:normal;font-family:'Open Sans';-inkscape-font-specification:'Open Sans';fill:#5945a6;fill-opacity:1;stroke-width:0.26458332px"
           id="path4900" />
        <path
           d="m 84.299257,319.2558 q 0,-0.60591 0.271301,-0.91338 0.280345,-0.31652 0.795817,-0.31652 0.524516,0 0.813904,0.31652 0.298431,0.30747 0.298431,0.91338 0,0.58782 -0.298431,0.90433 -0.298432,0.31652 -0.813904,0.31652 -0.461212,0 -0.768687,-0.28034 -0.298431,-0.28939 -0.298431,-0.94051 z m 0,-7.9853 q 0,-1.22086 1.067118,-1.22086 1.112335,0 1.112335,1.22086 0,0.58782 -0.298431,0.90433 -0.298432,0.31652 -0.813904,0.31652 -0.461212,0 -0.768687,-0.28034 -0.298431,-0.28939 -0.298431,-0.94051 z"
           style="font-style:normal;font-variant:normal;font-weight:normal;font-stretch:normal;font-family:'Open Sans';-inkscape-font-specification:'Open Sans';fill:#5945a6;fill-opacity:1;stroke-width:0.26458332px"
           id="path4902" />
        <path
           d="m 94.473053,306.99298 h 3.734914 q 2.631623,0 3.807263,0.78677 1.17564,0.78678 1.17564,2.48693 0,1.17564 -0.66017,1.94433 -0.65112,0.75964 -1.90815,0.98572 v 0.0904 q 3.01144,0.51547 3.01144,3.16518 0,1.7725 -1.20277,2.76727 -1.19372,0.99477 -3.346045,0.99477 h -4.612122 z m 1.537374,5.66115 h 2.532145 q 1.627808,0 2.342238,-0.50643 0.71442,-0.51547 0.71442,-1.72728 0,-1.11234 -0.79581,-1.60068 -0.79582,-0.49738 -2.532149,-0.49738 h -2.260844 z m 0,1.30225 v 4.94673 h 2.75823 q 1.600673,0 2.405533,-0.61495 0.81391,-0.624 0.81391,-1.94433 0,-1.2299 -0.83199,-1.80868 -0.82295,-0.57877 -2.514061,-0.57877 z"
           style="font-style:normal;font-variant:normal;font-weight:normal;font-stretch:normal;font-family:'Open Sans';-inkscape-font-specification:'Open Sans';fill:#5945a6;fill-opacity:1;stroke-width:0.26458332px"
           id="path4904" />
        <path
           d="m 109.94627,306.80307 q 1.80868,0 2.86675,0.84103 1.05808,0.84104 1.05808,2.32415 0,0.97668 -0.60591,1.78154 -0.60591,0.80487 -1.93528,1.46503 1.60972,0.76869 2.28797,1.61877 0.67826,0.84103 0.67826,1.95337 0,1.64589 -1.14851,2.63162 -1.14851,0.97668 -3.1471,0.97668 -2.11615,0 -3.25561,-0.92242 -1.13947,-0.93147 -1.13947,-2.63162 0,-2.26989 2.76727,-3.53596 -1.24798,-0.70539 -1.79058,-1.51929 -0.54261,-0.82295 -0.54261,-1.83581 0,-1.43789 1.05808,-2.28797 1.06712,-0.85912 2.84866,-0.85912 z m -2.85771,10.07432 q 0,1.0852 0.7506,1.69111 0.75965,0.60591 2.1252,0.60591 1.34746,0 2.09806,-0.63304 0.7506,-0.63304 0.7506,-1.73633 0,-0.87721 -0.70538,-1.55546 -0.70539,-0.6873 -2.4598,-1.32938 -1.34746,0.57878 -1.95337,1.28416 -0.60591,0.69634 -0.60591,1.67303 z m 2.83962,-8.85347 q -1.13042,0 -1.7725,0.54261 -0.64208,0.5426 -0.64208,1.44694 0,0.83199 0.53356,1.42885 0.53356,0.59686 1.97146,1.19373 1.2932,-0.54261 1.82676,-1.1666 0.5426,-0.62399 0.5426,-1.45598 0,-0.91338 -0.66016,-1.44694 -0.65113,-0.54261 -1.79964,-0.54261 z"
           style="font-style:normal;font-variant:normal;font-weight:normal;font-stretch:normal;font-family:'Open Sans';-inkscape-font-specification:'Open Sans';fill:#5945a6;fill-opacity:1;stroke-width:0.26458332px"
           id="path4906" />
        <path
           d="m 120.54511,306.80307 q 1.80867,0 2.86675,0.84103 1.05807,0.84104 1.05807,2.32415 0,0.97668 -0.6059,1.78154 -0.60591,0.80487 -1.93529,1.46503 1.60972,0.76869 2.28798,1.61877 0.67825,0.84103 0.67825,1.95337 0,1.64589 -1.14851,2.63162 -1.14851,0.97668 -3.14709,0.97668 -2.11615,0 -3.25562,-0.92242 -1.13946,-0.93147 -1.13946,-2.63162 0,-2.26989 2.76727,-3.53596 -1.24799,-0.70539 -1.79059,-1.51929 -0.5426,-0.82295 -0.5426,-1.83581 0,-1.43789 1.05807,-2.28797 1.06712,-0.85912 2.84867,-0.85912 z m -2.85771,10.07432 q 0,1.0852 0.7506,1.69111 0.75964,0.60591 2.12519,0.60591 1.34747,0 2.09807,-0.63304 0.7506,-0.63304 0.7506,-1.73633 0,-0.87721 -0.70539,-1.55546 -0.70538,-0.6873 -2.45979,-1.32938 -1.34747,0.57878 -1.95337,1.28416 -0.60591,0.69634 -0.60591,1.67303 z m 2.83962,-8.85347 q -1.13042,0 -1.7725,0.54261 -0.64208,0.5426 -0.64208,1.44694 0,0.83199 0.53356,1.42885 0.53356,0.59686 1.97145,1.19373 1.29321,-0.54261 1.82677,-1.1666 0.5426,-0.62399 0.5426,-1.45598 0,-0.91338 -0.66017,-1.44694 -0.65112,-0.54261 -1.79963,-0.54261 z"
           style="font-style:normal;font-variant:normal;font-weight:normal;font-stretch:normal;font-family:'Open Sans';-inkscape-font-specification:'Open Sans';fill:#5945a6;fill-opacity:1;stroke-width:0.26458332px"
           id="path4908" />
        <path
           d="m 132.32862,320.21439 h -1.46502 v -9.42319 q 0,-1.17564 0.0723,-2.22467 -0.18991,0.18991 -0.42503,0.3979 -0.23513,0.208 -2.15233,1.76346 l -0.79582,-1.03094 3.49979,-2.70397 h 1.26607 z"
           style="font-style:normal;font-variant:normal;font-weight:normal;font-stretch:normal;font-family:'Open Sans';-inkscape-font-specification:'Open Sans';fill:#5945a6;fill-opacity:1;stroke-width:0.26458332px"
           id="path4910" />
        <path
           d="m 146.12882,313.5856 q 0,3.42744 -1.08521,5.11855 -1.07616,1.69111 -3.30083,1.69111 -2.13424,0 -3.24657,-1.72728 -1.11234,-1.73633 -1.11234,-5.08238 0,-3.45457 1.07616,-5.12759 1.07617,-1.67303 3.28275,-1.67303 2.15232,0 3.26466,1.74537 1.12138,1.74537 1.12138,5.05525 z m -7.22566,0 q 0,2.88484 0.67825,4.20517 0.67826,1.31129 2.16137,1.31129 1.5012,0 2.17041,-1.32938 0.67825,-1.33842 0.67825,-4.18708 0,-2.84866 -0.67825,-4.169 -0.66921,-1.32937 -2.17041,-1.32937 -1.48311,0 -2.16137,1.31129 -0.67825,1.30224 -0.67825,4.18708 z"
           style="font-style:normal;font-variant:normal;font-weight:normal;font-stretch:normal;font-family:'Open Sans';-inkscape-font-specification:'Open Sans';fill:#5945a6;fill-opacity:1;stroke-width:0.26458332px"
           id="path4912" />
        <path
           d="m 152.34162,306.80307 q 1.80867,0 2.86675,0.84103 1.05807,0.84104 1.05807,2.32415 0,0.97668 -0.6059,1.78154 -0.60591,0.80487 -1.93528,1.46503 1.60972,0.76869 2.28797,1.61877 0.67825,0.84103 0.67825,1.95337 0,1.64589 -1.14851,2.63162 -1.1485,0.97668 -3.14709,0.97668 -2.11615,0 -3.25562,-0.92242 -1.13946,-0.93147 -1.13946,-2.63162 0,-2.26989 2.76727,-3.53596 -1.24798,-0.70539 -1.79059,-1.51929 -0.5426,-0.82295 -0.5426,-1.83581 0,-1.43789 1.05808,-2.28797 1.06711,-0.85912 2.84866,-0.85912 z m -2.85771,10.07432 q 0,1.0852 0.7506,1.69111 0.75965,0.60591 2.1252,0.60591 1.34746,0 2.09806,-0.63304 0.7506,-0.63304 0.7506,-1.73633 0,-0.87721 -0.70538,-1.55546 -0.70539,-0.6873 -2.4598,-1.32938 -1.34747,0.57878 -1.95337,1.28416 -0.60591,0.69634 -0.60591,1.67303 z m 2.83962,-8.85347 q -1.13042,0 -1.7725,0.54261 -0.64208,0.5426 -0.64208,1.44694 0,0.83199 0.53356,1.42885 0.53356,0.59686 1.97146,1.19373 1.2932,-0.54261 1.82676,-1.1666 0.5426,-0.62399 0.5426,-1.45598 0,-0.91338 -0.66017,-1.44694 -0.65112,-0.54261 -1.79963,-0.54261 z"
           style="font-style:normal;font-variant:normal;font-weight:normal;font-stretch:normal;font-family:'Open Sans';-inkscape-font-specification:'Open Sans';fill:#5945a6;fill-opacity:1;stroke-width:0.26458332px"
           id="path4914" />
        <path
           d="m 167.25415,312.63605 q 0,7.75921 -6.0048,7.75921 -1.04904,0 -1.66398,-0.18087 v -1.2932 q 0.72347,0.23513 1.64589,0.23513 2.17041,0 3.2737,-1.33842 1.11234,-1.34746 1.21181,-4.12378 h -0.10852 q -0.49738,0.7506 -1.32033,1.14851 -0.82295,0.38886 -1.85389,0.38886 -1.75442,0 -2.78536,-1.04903 -1.03095,-1.04903 -1.03095,-2.93005 0,-2.06189 1.14851,-3.25562 1.15756,-1.19372 3.03858,-1.19372 1.34746,0 2.35127,0.69634 1.01286,0.68729 1.55547,2.01667 0.5426,1.32033 0.5426,3.11997 z m -4.44934,-4.54882 q -1.29321,0 -1.99859,0.83199 -0.70538,0.83199 -0.70538,2.3151 0,1.30225 0.65112,2.05285 0.65112,0.74156 1.9805,0.74156 0.82295,0 1.51024,-0.33461 0.69634,-0.3346 1.09425,-0.91338 0.39791,-0.57878 0.39791,-1.21181 0,-0.94956 -0.37078,-1.75442 -0.37078,-0.80486 -1.03999,-1.26607 -0.66016,-0.46121 -1.51928,-0.46121 z"
           style="font-style:normal;font-variant:normal;font-weight:normal;font-stretch:normal;font-family:'Open Sans';-inkscape-font-specification:'Open Sans';fill:#5945a6;fill-opacity:1;stroke-width:0.26458332px"
           id="path4916" />
        <path
           d="m 174.72397,320.21439 h -1.46503 v -9.42319 q 0,-1.17564 0.0724,-2.22467 -0.18991,0.18991 -0.42504,0.3979 -0.23513,0.208 -2.15232,1.76346 l -0.79582,-1.03094 3.49979,-2.70397 h 1.26607 z"
           style="font-style:normal;font-variant:normal;font-weight:normal;font-stretch:normal;font-family:'Open Sans';-inkscape-font-specification:'Open Sans';fill:#5945a6;fill-opacity:1;stroke-width:0.26458332px"
           id="path4918" />
        <path
           d="m 183.89396,312.13866 q 2.08902,0 3.28274,1.03999 1.20277,1.03094 1.20277,2.83057 0,2.05285 -1.31129,3.21945 -1.30224,1.16659 -3.59926,1.16659 -2.23372,0 -3.40935,-0.71442 v -1.44694 q 0.63303,0.40695 1.57354,0.64207 0.94051,0.22609 1.85389,0.22609 1.59164,0 2.46885,-0.7506 0.88625,-0.7506 0.88625,-2.17041 0,-2.76727 -3.39127,-2.76727 -0.85912,0 -2.29702,0.26225 l -0.77773,-0.49738 0.49739,-6.18567 h 6.57453 v 1.38364 h -5.29037 l -0.33461,3.97004 q 1.03999,-0.208 2.07094,-0.208 z"
           style="font-style:normal;font-variant:normal;font-weight:normal;font-stretch:normal;font-family:'Open Sans';-inkscape-font-specification:'Open Sans';fill:#5945a6;fill-opacity:1;stroke-width:0.26458332px"
           id="path4920" />
      </g>
    </g>
  </g>
</svg>
